<?xml version="1.0" encoding="UTF-8" standalone="no"?>
<!-- Created with Inkscape (http://www.inkscape.org/) -->

<svg
   xmlns:dc="http://purl.org/dc/elements/1.1/"
   xmlns:cc="http://creativecommons.org/ns#"
   xmlns:rdf="http://www.w3.org/1999/02/22-rdf-syntax-ns#"
   xmlns:svg="http://www.w3.org/2000/svg"
   xmlns="http://www.w3.org/2000/svg"
   version="1.2"
   width="200"
   height="200"
   viewBox="0 0 200 200"
   id="svg2">
  <defs
     id="defs4" />
  <metadata
     id="metadata7">
    <rdf:RDF>
      <cc:Work
         rdf:about="">
        <dc:format>image/svg+xml</dc:format>
        <dc:type
           rdf:resource="http://purl.org/dc/dcmitype/StillImage" />
        <dc:title></dc:title>
      </cc:Work>
    </rdf:RDF>
  </metadata>
  <path
     d="m 71.749358,145.6573 -7.64092,-4.58455 -7.640919,-6.49478 -7.258873,-9.55115 -4.202506,-8.78705 -3.056368,-9.1691 -2.292275,-5.34865 -0.870639,-6.059463 0.106546,-5.019871 1.91023,-1.528184 0.764092,-1.910229 -0.343488,-3.201475 -0.420604,-4.439445 -1.528185,-4.584551 -1.146137,3.438413 -2.674322,-3.820459 -1.91023,-5.348644 -2.292276,-2.674322 -1.910229,-2.674321 -2.674322,0.382046 0,3.056367 -0.382046,3.056368 -3.008676,4.729658 -1.575876,7.113766 -5.730689,-5.348643 -3.476974,-5.875795 -1.871669,-7.877859 0.710818,-8.932163 3.530246,-4.25578 4.545993,-1.329804 3.438413,0.382046 3.82046,0.382046 1.146137,1.528184 1.146139,-2.292276 2.292275,-2.674322 6.112736,-3.438413 6.876827,-1.528184 5.348644,-0.382046 6.49478,0.382046 4.584552,2.674322 2.292277,4.202505 -0.764092,1.146138 -0.764093,3.438414 0,3.438413 1.528185,3.82046 0.764091,1.146138 2.674322,3.056368 -1.528183,1.528183 0,0.764092 0.382045,0.764093 -0.764092,2.674321 0,1.528184 -0.382046,1.528184 0,2.292276 -0.764092,1.528184 -3.056367,0.382045 -3.056368,0.382046 -3.056367,0 -1.91023,0 0.764091,2.292276 0.290214,2.911262 0.855925,2.819428 1.910228,0.764091 3.056369,-1.146138 5.05843,-2.093896 7.931132,-2.108609 6.876828,-2.292276 8.405007,-1.910229 2.67433,-1.146139 5.73069,-2.292275 6.876833,-1.91023 6.87682,-1.91023 7.25888,-1.91023 6.49477,-2.292275 4.20251,-1.146138 4.20251,-2.292276 8.02296,-1.146138 3.43841,0 4.58456,0 1.14613,1.528184 -0.76409,1.528183 -2.29228,0.764093 -3.43841,0.382045 1.91024,0.382047 0,1.146137 -4.20251,1.146138 -6.49478,1.146138 -8.40501,1.146138 -4.99602,1.146138 -4.80679,2.621048 -5.86108,3.491687 -3.69006,1.856957 -5.53231,2.621048 -3.293323,1.237971 -3.53024,1.542897 -3.76719,0.870639 -2.34555,1.803683 -6.112732,3.056368 -3.438413,0.764092 -3.82046,1.528184 -3.438414,0 -2.292275,1.146138 -1.528185,1.91023 3.056369,1.91023 3.056368,1.528183 0.764092,1.528189 0.986647,2.51482 0,3.21586 -0.222556,4.58456 0,3.82045 2.292276,2.29228 3.056368,2.29228 4.966595,2.29228 2.29228,1.52817 2.67432,-3.43841 2.67432,-2.29227 1.91023,-2.29228 1.91023,-2.67432 2.67432,-3.43841 2.674323,-4.2025 3.82047,-3.82047 4.2025,-3.820459 3.43841,-4.202505 6.11273,-6.112735 5.7307,-5.73069 6.87683,-5.348644 5.73068,-3.82046 5.73069,-3.056367 3.82047,-0.764091 1.91022,0.382045 1.30596,2.14717 1.75042,6.639887 3.05636,11.46138 1.72656,6.204567 2.0939,7.931132 2.67432,7.25887 3.05637,9.16911 3.82045,8.40501 3.43843,6.49478 2.67432,2.67432 3.05636,1.52819 5.20355,1.87167 4.24106,2.49064 2.57095,0.6779 0.20991,1.45455 -2.02861,0.57928 -2.17389,-0.19724 -2.67432,-0.38204 -1.86664,-0.79732 -1.95383,-0.34883 -2.5103,0.0332 -2.63071,0.41525 -1.77941,0.63327 -1.86663,0.82848 -2.54352,0.87413 -2.04104,0.27201 -2.67431,-1.14614 -1.14614,-0.76408 -2.67433,0.38204 -2.29227,-1.52819 -0.38205,-3.82045 0.42061,-4.43946 -0.42061,-3.58351 -0.38204,-3.82047 -0.76409,-4.58454 -0.76409,-3.43841 -1.34452,-3.0031 -2.47595,-3.49169 -3.43841,-3.97995 -2.67432,-3.27892 -2.67432,-4.9666 -1.72657,-3.859017 -0.94775,-2.635761 -1.52819,-4.163946 -2.58748,3.022537 -1.62974,4.091229 -2.7276,6.494778 -2.47593,6.25784 -2.54394,4.72967 -5.24209,8.45828 -2.39882,3.76718 -2.04062,3.72863 0.38205,2.05534 -2.80472,5.1117 -2.01678,2.85799 -2.33083,2.71288 -2.91127,2.45209 -5.82252,1.9488 -4.255783,1.00103 -6.44151,0.52714 -6.0209,-0.0385 -5.348643,-2.29227 z"
     id="path3816"
     style="fill:none;stroke:#000000;stroke-width:4.81507969;stroke-linecap:butt;stroke-linejoin:round;stroke-miterlimit:4;stroke-opacity:1;stroke-dasharray:none" />
</svg>
