<?xml version="1.0" encoding="utf-8"?>
<!-- Generator: Adobe Illustrator 16.0.4, SVG Export Plug-In . SVG Version: 6.00 Build 0)  -->
<!DOCTYPE svg PUBLIC "-//W3C//DTD SVG 1.1//EN" "http://www.w3.org/Graphics/SVG/1.1/DTD/svg11.dtd">
<svg version="1.1" id="Ebene_1" xmlns="http://www.w3.org/2000/svg" xmlns:xlink="http://www.w3.org/1999/xlink" x="0px" y="0px"
	 width="1200px" height="240px" viewBox="0 0 1200 240" enable-background="new 0 0 1200 240" xml:space="preserve">
<g>
	<path opacity="0.1" fill="#D9D9D9" d="M385.902,0H280.521l-84.8,120h-0.002l84.8,120h105.383l-84.801-120h0.001L385.902,0z
		 M919.479,0H814.099l84.799,120h0.002l-84.801,120h105.383l84.799-120L919.479,0z"/>
	<path opacity="0.2" fill="#D9D9D9" d="M492.952,0H387.571l-84.8,120h-0.001l84.799,120h105.383l-84.801-120h0.002L492.952,0z
		 M897.229,120L812.431,0H707.05l84.799,120h0.002L707.05,240h105.383l84.799-120H897.229z"/>
	<path opacity="0.3" fill="#D9D9D9" d="M705.384,240l84.799-120h-0.002L705.382,0H494.619L409.82,120h-0.002l84.799,120H705.384z"/>
</g>
</svg>
