<svg xmlns="http://www.w3.org/2000/svg">
<defs>
<font id="AltoVoltaje" horiz-adv-x="997" >
  <font-face 
    font-family="Alto Voltaje"
    font-weight="400"
    font-stretch="normal"
    units-per-em="2048"
    panose-1="2 0 5 0 0 0 0 0 0 0"
    ascent="1638"
    descent="-410"
    x-height="921"
    cap-height="1434"
    bbox="-292 -670.001 2304 1766.19"
    underline-thickness="150"
    underline-position="-142"
    unicode-range="U+0020-U+F002"
  />
<missing-glyph horiz-adv-x="2355" 
d="M833 1393c67.333 24 136.333 37.666 207 40.999h114v-697h-172v516c-52 -8.66699 -101.667 -25 -149 -49v-467h-172v329c-77.333 -96 -116 -205.667 -116 -329h-174c0 95.333 18.333 186 55 272c36 84 86.333 158.333 151 223c-104 -36 -188.667 -98.667 -254 -188
c-66 -91.333 -99 -193.666 -99 -306.999h-174c0 92 17.333 180.333 52 265c34 82 81.667 154.667 143 218c61.333 64 132.333 114.333 213 151c82.667 38 169.667 59 261 63h114v-41zM1373 736.999l-171.999 0.000976562v697h114c70.667 -3.33301 139.667 -17 207 -41v41
h113c91.333 -4 178.666 -25 261.999 -63c80 -36.667 150.667 -87 212 -151c61.333 -63.333 109 -136 143 -218c34.667 -84.667 52 -173 52 -265h-174c0 113.333 -33 215.666 -99 306.999c-64.667 89.333 -149 152 -253 188c64.667 -64.667 114.667 -139 150 -223
c37.333 -86 56 -176.667 56 -272h-174c0 123.333 -39 233 -117 329v-329h-171v467c-47.333 24 -97 40.333 -149 49v-516zM1778 202c104 36 188.332 98.668 252.999 188.001c66 91.333 99 193.666 99 306.999h174c0 -92 -17.333 -180.333 -52 -265
c-34 -82 -81.667 -154.667 -143 -218c-61.333 -64 -132 -114.333 -212 -151c-83.333 -38 -170.666 -59 -261.999 -63h-113v41c-67.333 -24 -136.333 -37.667 -207 -41h-114v697h172v-516c52 8.66699 101.667 25 149 49v467h171v-329c78 96 117 205.667 117 329h174
c0 -95.333 -18.667 -186 -56 -272c-35.333 -84 -85.333 -158.333 -150 -223zM982 697.001l172 -0.000976562v-697h-114c-70.667 3.33301 -139.667 17 -207 41v-41h-114c-91.333 4 -178.333 25 -261 63c-80.667 36.667 -151.667 87 -213 151

<glyph glyph-name=".notdef" horiz-adv-x="2355" 
d="M833 1393c67.333 24 136.333 37.666 207 40.999h114v-697h-172v516c-52 -8.66699 -101.667 -25 -149 -49v-467h-172v329c-77.333 -96 -116 -205.667 -116 -329h-174c0 95.333 18.333 186 55 272c36 84 86.333 158.333 151 223c-104 -36 -188.667 -98.667 -254 -188
c-66 -91.333 -99 -193.666 -99 -306.999h-174c0 92 17.333 180.333 52 265c34 82 81.667 154.667 143 218c61.333 64 132.333 114.333 213 151c82.667 38 169.667 59 261 63h114v-41zM1373 736.999l-171.999 0.000976562v697h114c70.667 -3.33301 139.667 -17 207 -41v41
h113c91.333 -4 178.666 -25 261.999 -63c80 -36.667 150.667 -87 212 -151c61.333 -63.333 109 -136 143 -218c34.667 -84.667 52 -173 52 -265h-174c0 113.333 -33 215.666 -99 306.999c-64.667 89.333 -149 152 -253 188c64.667 -64.667 114.667 -139 150 -223
c37.333 -86 56 -176.667 56 -272h-174c0 123.333 -39 233 -117 329v-329h-171v467c-47.333 24 -97 40.333 -149 49v-516zM1778 202c104 36 188.332 98.668 252.999 188.001c66 91.333 99 193.666 99 306.999h174c0 -92 -17.333 -180.333 -52 -265
c-34 -82 -81.667 -154.667 -143 -218c-61.333 -64 -132 -114.333 -212 -151c-83.333 -38 -170.666 -59 -261.999 -63h-113v41c-67.333 -24 -136.333 -37.667 -207 -41h-114v697h172v-516c52 8.66699 101.667 25 149 49v467h171v-329c78 96 117 205.667 117 329h174
c0 -95.333 -18.667 -186 -56 -272c-35.333 -84 -85.333 -158.333 -150 -223zM982 697.001l172 -0.000976562v-697h-114c-70.667 3.33301 -139.667 17 -207 41v-41h-114c-91.333 4 -178.333 25 -261 63c-80.667 36.667 -151.667 87 -213 151
c-61.333 63.333 -109 136 -143 218c-34.667 84.667 -52 173 -52 265h174c0 -113.333 33 -215.666 99 -306.999c65.333 -89.333 150 -152 254 -188c-64.667 64.667 -115 139 -151 223c-36.667 86 -55 176.667 -55 272h174c0 -123.333 38.667 -233 116 -329v329h172v-467
c47.333 -24 97 -40.333 149 -49v516z" />
    <glyph glyph-name="space" unicode=" " horiz-adv-x="508" 
 />
    <glyph glyph-name="space" unicode="&#xa0;" horiz-adv-x="508" 
 />
    <glyph glyph-name="exclam" unicode="!" horiz-adv-x="292" 
d="M200 26c17.333 16.667 26 37.334 26 62.001c0 24 -8.66699 44.667 -26 62s-38 26 -62 26c-24.667 0 -45.334 -8.66699 -62.001 -26c-17.333 -17.333 -26 -38 -26 -62c0 -24.667 8.66699 -45.334 26 -62.001c16.667 -17.333 37.334 -26 62.001 -26
c24 0 44.667 8.66699 62 26zM62 1434h151l-22 -1198h-106z" />
    <glyph glyph-name="quotedbl" unicode="&#x22;" horiz-adv-x="325" 
d="M218 1316h-51v180h101zM109 1316h-51v180h101z" />
    <glyph glyph-name="numbersign" unicode="#" horiz-adv-x="560" 
d="M417 944v-87h87v-106h-87v-68h87v-106h-87v-87h-107v87h-67v-87h-106v87h-87v106h87v68h-87v106h87v87h106v-87h67v87h107zM243 683h67v68h-67v-68z" />
    <glyph glyph-name="dollar" unicode="$" horiz-adv-x="1007" 
d="M845 435c0 32.667 -31.332 70.001 -93.999 112.001c-52.667 34.667 -117.667 66.667 -195 96v-535c77.333 10 143.666 35 198.999 75c60 43.333 90 93.666 90 150.999v101zM160.001 1001c0 -33.333 31.333 -71 94 -113c52.667 -34.667 117.667 -66.667 195 -96v535
c-74.667 -10 -140.667 -36 -198 -78c-60.667 -44 -91 -93 -91 -147v-101zM556.001 757.001c60.667 -22 117.001 -46.002 169.001 -72.002c151.333 -77.333 227 -160.666 227 -249.999v-101c0 -100.667 -51.333 -184.334 -154 -251.001c-71.333 -46 -152 -73.333 -242 -82
v-135h-107v135c-104.667 10.667 -195.334 46 -272.001 106c-82.667 64.667 -124 140.334 -124 227.001h107c0 -54.667 30.333 -104 91 -148c56 -41.333 122 -67 198 -77v570c-60.667 21.333 -117 45 -169 71c-151.333 76.667 -227 160.334 -227 251.001v101
c0 96.667 51 178.667 153 246c72.667 48.667 153.667 77.667 243 87v135h107v-135c89.333 -9.33301 170.333 -38.333 243 -87c102 -67.333 153 -149.333 153 -246h-107c0 54 -30.333 103 -91 147c-57.333 42 -123.333 68 -198 78v-570z" />
    <glyph glyph-name="percent" unicode="%" horiz-adv-x="1246" 
d="M366 -76h-112l613 1509h112zM200 1299c-30 -16.667 -45 -34.334 -45 -53.001v-267c0 -18.667 15 -36.334 45 -53.001c34 -18.667 74.667 -28 122 -28s87.666 9.33301 120.999 28c30 16.667 45 34.334 45 53.001v267c0 18.667 -15 36.334 -45 53.001
c-33.333 18.667 -73.666 28 -120.999 28s-88 -9.33301 -122 -28zM128 846c-52.667 36 -79 80.333 -79 133v267c0 52.667 26.333 97 79 133s117.334 54 194.001 54c76 0 140.333 -18 193 -54s79 -80.333 79 -133v-267c0 -52.667 -26.333 -97 -79 -133s-117 -54 -193 -54
c-76.667 0 -141.334 18 -194.001 54zM796 431c-30 -16.667 -45 -34.334 -45 -53.001v-267c0 -18.667 15 -36.334 45 -53.001c33.333 -18.667 73.666 -28 120.999 -28s87.666 9.33301 120.999 28c30 16.667 45 34.334 45 53.001v267c0 18.667 -15 36.334 -45 53.001
c-33.333 18.667 -73.666 28 -120.999 28s-87.666 -9.33301 -120.999 -28zM723 -22c-52.667 36 -79 80.333 -79 133v267c0 52.667 26.333 97 79 133s117.334 54 194.001 54c76 0 140.333 -18 193 -54s79 -80.333 79 -133v-267c0 -52.667 -26.333 -97 -79 -133
s-117 -54 -193 -54c-76.667 0 -141.334 18 -194.001 54z" />
    <glyph glyph-name="ampersand" unicode="&#x26;" horiz-adv-x="990" 
d="M153 403c0 -80.667 37.001 -151 111.001 -211c70 -57.333 146.333 -86 229 -86c54 0 108 14 162 42c-50 74 -93.667 174.667 -131 302c-32.667 114 -58.334 237.333 -77.001 370c-76.667 -12 -143.667 -44.667 -201 -98c-62 -58 -93 -123 -93 -195v-124zM248.001 1091
c0 -43.333 27 -81.333 81 -114c51.333 -31.333 106 -47 164 -47c58.667 0 113.334 15.667 164.001 47c54 32.667 81 70.667 81 114v76c0 42.667 -27 80.667 -81 114c-50.667 31.333 -105.334 47 -164.001 47c-58 0 -112.667 -15.667 -164 -47
c-54 -33.333 -81 -71.333 -81 -114v-76zM939.001 403c0 -102.667 -41.6689 -193.333 -125.002 -272c24 -16.667 48 -25 72 -25h53v-106h-53c-58 0 -111.667 22 -161 66c-75.333 -44 -152.666 -66 -231.999 -66c-110.667 -0 -211.334 38.333 -302.001 115
c-96 80.667 -144 176.667 -144 288v124c0 74.667 23.333 144 70 208c42.667 60 99.334 107.667 170.001 143c-97.333 54.667 -146 125.667 -146 213v76c0 75.333 38 139.333 114 192c70.667 50 150 75 238 75s167.333 -25 238 -75c76 -52.667 114 -116.667 114 -192v-76
c0 -66.667 -30.333 -125 -91 -175c-55.333 -46.667 -122.333 -76 -201 -88c18.667 -127.333 43.334 -243.666 74.001 -348.999c34 -116 72.333 -205.667 115 -269c60.667 57.333 91 121.666 91 192.999v124h106v-124z" />
    <glyph glyph-name="quotesingle" unicode="'" horiz-adv-x="205" 
d="M109 1316h-51v180h101z" />
    <glyph glyph-name="parenleft" unicode="(" horiz-adv-x="311" 
d="M154 211c0 -64 39.333 -119.667 118 -167v-119c-66.667 29.333 -119.667 68 -159 116c-43.333 52 -65 108.667 -65 170v938c0 96.667 51 178.667 153 246c22 14.667 45.667 27.667 71 39v-120c-78.667 -48 -118 -103 -118 -165v-938z" />
    <glyph glyph-name="parenright" unicode=")" horiz-adv-x="318" 
d="M165 1149c0 62 -39 117 -117 165v120c25.333 -11.333 49 -24.333 71 -39c102 -67.333 153 -149.333 153 -246v-938c0 -61.333 -21.667 -118 -65 -170c-39.333 -48 -92.333 -86.667 -159 -116v119c78 47.333 117 103 117 167v938z" />
    <glyph glyph-name="asterisk" unicode="*" horiz-adv-x="557" 
d="M331 1496v-98l70 70l75 -76l-70 -69h99v-107h-99l70 -69l-75 -76l-70 70v-98h-106v98l-70 -70l-75 76l69 69h-98v107h98l-69 69l75 76l70 -70v98h106z" />
    <glyph glyph-name="plus" unicode="+" horiz-adv-x="552" 
d="M330 944v-174h174v-106h-174v-174h-106v174h-174v106h174v174h106z" />
    <glyph glyph-name="comma" unicode="," horiz-adv-x="219" 
d="M109 -70h-51v180h101z" />
    <glyph glyph-name="hyphen" unicode="-" horiz-adv-x="566" 
d="M504 770v-106h-454v106h454z" />
    <glyph glyph-name="hyphen" unicode="&#xad;" horiz-adv-x="566" 
d="M504 770v-106h-454v106h454z" />
    <glyph glyph-name="period" unicode="." horiz-adv-x="205" 
d="M68 89c10.667 10.667 23 16 37 16c14.667 0 27 -5.33301 37 -16c10.667 -10 16 -22.333 16 -37c0 -14 -5.33301 -26.333 -16 -37c-10 -10 -22.333 -15 -37 -15c-14 0 -26.333 5 -37 15c-10 10.667 -15 23 -15 37c0 14.667 5 27 15 37z" />
    <glyph glyph-name="slash" unicode="/" horiz-adv-x="662" 
d="M690 1436l-614 -1512h-112l613 1512h113z" />
    <glyph glyph-name="zero" unicode="0" horiz-adv-x="982" 
d="M275 166c68 -40 141.001 -60.001 219.001 -60.001c85.333 0 162.333 21.333 231 64c73.333 45.333 110 100.333 110 165v639l-681 -660c9.33301 -57.333 49.666 -106.666 120.999 -147.999zM711.001 1268c-68.667 40 -141 60 -217 60
c-81.333 0 -157.666 -22.333 -228.999 -67c-75.333 -47.333 -113 -101.333 -113 -162v-639l681 660c-8.66699 56.667 -49.334 106 -122.001 148zM494.001 1434c107.333 0 205.668 -29.668 295.001 -89.001c102 -67.333 153 -149.333 153 -246v-764
c0 -100.667 -51 -184 -153 -250c-88 -56.667 -186.333 -85 -295 -85c-112 0 -213.333 31 -304 93c-96 66.667 -144 147.334 -144 242.001v764c0 96.667 51 178.667 153 246c89.333 59.333 187.666 89 294.999 89z" />
    <glyph glyph-name="one" unicode="1" horiz-adv-x="423" 
d="M265 1383l1 -1277h107v-106h-323v106h108v1171h-108v106h215z" />
    <glyph glyph-name="two" unicode="2" horiz-adv-x="906" 
d="M820 0l-764 -0.000976562v290c0 84.667 64.667 176.334 194 275.001c58 44.667 117.667 83.334 179 116.001c77.333 45.333 147 96.666 209 153.999c72.667 68 109 122.667 109 164v100c0 62 -31.667 116.333 -95 163c-60.667 44 -126.334 66 -197.001 66
c-71.333 0 -137 -22 -197 -66c-64 -46.667 -96 -101 -96 -163h-106c0 95.333 44.667 176.666 134 243.999c80 60.667 168.333 91 265 91c96 0 184.333 -30.333 265 -91c89.333 -67.333 134 -148.666 134 -243.999v-100c0 -84.667 -64.333 -179.334 -193 -284.001
c-59.333 -49.333 -119 -91.666 -179 -126.999l-2 -1c-77.333 -40.667 -146.666 -87.667 -207.999 -141c-73.333 -63.333 -110 -115.333 -110 -156v-184h658v-106z" />
    <glyph glyph-name="three" unicode="3" horiz-adv-x="981" 
d="M197 89c-102 67.333 -153 149.331 -153 245.998h107c0 -60.667 37.333 -114.667 112 -162c71.333 -44 147.666 -66 228.999 -66s157.666 22 228.999 66c75.333 47.333 113 101.333 113 162v101c0 60.667 -37.667 114.334 -113 161.001
c-71.333 44.667 -147.666 67 -228.999 67v107c81.333 0 157.666 22.333 228.999 67c75.333 46.667 113 100.334 113 161.001v101c0 60.667 -37.667 114.667 -113 162c-71.333 44 -147.666 66 -228.999 66s-157.666 -22 -228.999 -66
c-74.667 -47.333 -112 -101.333 -112 -162h-107c0 96.667 51 178.667 153 246c89.333 59.333 187.666 89 294.999 89s206 -29.667 296 -89c101.333 -67.333 152 -149.333 152 -246v-101c0 -96 -50.667 -178 -152 -246c-20 -13.333 -41.333 -25 -64 -35
c22.667 -10.667 44 -22.667 64 -36c101.333 -68 152 -150 152 -246v-101c0 -96.667 -50.667 -178.667 -152 -246c-90 -59.333 -188.667 -89 -296 -89s-205.666 29.667 -294.999 89z" />
    <glyph glyph-name="four" unicode="4" horiz-adv-x="948" 
d="M892 1435v-1435h-106v664h-729l210 732l103 -29l-172 -596h588v664h106z" />
    <glyph glyph-name="five" unicode="5" 
d="M206 89c-102 67.333 -153.001 149.332 -153.001 245.999h106c0 -60.667 37.667 -114.667 113 -162c71.333 -44.667 147.666 -67 228.999 -67s157.333 22.333 228 67c75.333 47.333 113 101.333 113 162v268c0 61.333 -37.667 115.333 -113 162
c-70.667 44.667 -146.667 67 -228 67s-157.666 -22.333 -228.999 -67c-75.333 -46.667 -113 -100.667 -113 -162h-106v831h842v-106h-736v-514c14.667 12.667 30.334 24.334 47.001 35.001c89.333 59.333 187.666 89 294.999 89s205.666 -29.667 294.999 -89
c102 -67.333 153 -149.333 153 -246v-268c0 -96.667 -51 -178.667 -153 -246c-89.333 -59.333 -187.666 -89 -294.999 -89s-205.666 29.667 -294.999 89z" />
    <glyph glyph-name="six" unicode="6" horiz-adv-x="1003" 
d="M160 335c0 -60.667 37.333 -114.667 112 -162c70.667 -44 146.334 -66 227.001 -66c81.333 0 157.333 22 228 66c74.667 47.333 112 101.333 112 162v269c0 60.667 -37.333 114.667 -112 162c-70.667 44 -146.667 66 -228 66c-80.667 0 -156.334 -22 -227.001 -66
c-74.667 -47.333 -112 -101.333 -112 -162v-269zM205 89c-101.333 67.333 -151.998 149.333 -151.998 246v765c0 96.667 50.667 178.667 152 246c89.333 59.333 187.333 89 294 89c107.333 0 205.666 -29.667 294.999 -89c101.333 -67.333 152 -149.333 152 -246h-107
c0 60.667 -37.333 114.667 -112 162c-70.667 44 -146.667 66 -228 66c-80.667 0 -156.334 -22 -227.001 -66c-74.667 -47.333 -112 -101.333 -112 -162v-285c13.333 12 28.333 23.667 45 35c89.333 59.333 187.333 89 294 89c107.333 0 205.666 -29.667 294.999 -89
c101.333 -67.333 152 -149.333 152 -246v-269c0 -96.667 -50.667 -178.667 -152 -246c-89.333 -59.333 -187.666 -89 -294.999 -89c-106.667 0 -204.667 29.667 -294 89z" />
    <glyph glyph-name="seven" unicode="7" horiz-adv-x="1014" 
d="M952 1435l-227 -1435h-109l211 1328h-670v-109h-107v216h902z" />
    <glyph glyph-name="eight" unicode="8" horiz-adv-x="983" 
d="M268 838c70.667 -44.667 146.334 -67 227.001 -67c81.333 0 157.333 22.333 228 67c74.667 46.667 112 100.334 112 161.001v101c0 60.667 -37.333 114.667 -112 162c-70.667 44 -146.667 66 -228 66c-80.667 0 -156.334 -22 -227.001 -66
c-74.667 -47.333 -112 -101.333 -112 -162v-101c0 -60.667 37.333 -114.334 112 -161.001zM835 436c0 60.667 -37.333 114.334 -112 161.001c-70.667 44.667 -146.667 67 -228 67c-80.667 0 -156.334 -22.333 -227.001 -67c-74.667 -46.667 -112 -100.334 -112 -161.001
v-101c0 -60.667 37.333 -114.667 112 -162c70.667 -44 146.334 -66 227.001 -66c81.333 0 157.333 22 228 66c74.667 47.333 112 101.333 112 162v101zM942 999c0 -96 -50.667 -178 -152 -246c-19.333 -12.667 -40.333 -24.334 -63 -35.001
c22.667 -11.333 43.667 -23.333 63 -36c101.333 -68 152 -150 152 -246v-101c0 -96.667 -50.667 -178.667 -152 -246c-89.333 -59.333 -187.666 -89 -294.999 -89c-106.667 0 -204.667 29.667 -294 89c-101.333 67.333 -152 149.333 -152 246v101c0 96 50.667 178 152 246
c19.333 12.667 40.333 24.667 63 36c-22.667 10.667 -43.667 22.334 -63 35.001c-101.333 68 -152 150 -152 246v101c0 96.667 50.667 178.667 152 246c89.333 59.333 187.333 89 294 89c107.333 0 205.666 -29.667 294.999 -89c101.333 -67.333 152 -149.333 152 -246v-101
z" />
    <glyph glyph-name="nine" unicode="9" 
d="M839 1100c0 60.667 -37.333 114.667 -112 162c-70.667 44 -146.667 66 -228 66c-80.667 0 -156.334 -22 -227.001 -66c-74.667 -47.333 -112 -101.333 -112 -162v-269c0 -60.667 37.333 -114.667 112 -162c70.667 -44 146.334 -66 227.001 -66
c81.333 0 157.333 22 228 66c74.667 47.333 112 101.333 112 162v269zM794 1346c101.333 -67.333 151.998 -149.333 151.998 -246v-765c0 -96.667 -50.667 -178.667 -152 -246c-89.333 -59.333 -187.666 -89 -294.999 -89c-106.667 0 -204.667 29.667 -294 89
c-101.333 67.333 -152 149.333 -152 246h107c0 -60.667 37.333 -114.667 112 -162c70.667 -44 146.334 -66 227.001 -66c81.333 0 157.333 22 228 66c74.667 47.333 112 101.333 112 162v285c-13.333 -12 -28.333 -23.667 -45 -35
c-89.333 -59.333 -187.666 -89 -294.999 -89c-106.667 0 -204.667 29.667 -294 89c-101.333 67.333 -152 149.333 -152 246v269c0 96.667 50.667 178.667 152 246c89.333 59.333 187.333 89 294 89c107.333 0 205.666 -29.667 294.999 -89z" />
    <glyph glyph-name="colon" unicode=":" horiz-adv-x="203" 
d="M68 89c10.667 10.667 23 16 37 16c14.667 0 27 -5.33301 37 -16c10.667 -10 16 -22.333 16 -37c0 -14 -5.33301 -26.333 -16 -37c-10 -10 -22.333 -15 -37 -15c-14 0 -26.333 5 -37 15c-10 10.667 -15 23 -15 37c0 14.667 5 27 15 37zM68 751c10.667 10.667 23 16 37 16
c14.667 0 27 -5.33301 37 -16c10.667 -10 16 -22.333 16 -37c0 -14 -5.33301 -26.333 -16 -37c-10 -10 -22.333 -15 -37 -15c-14 0 -26.333 5 -37 15c-10 10.667 -15 23 -15 37c0 14.667 5 27 15 37z" />
    <glyph glyph-name="semicolon" unicode=";" horiz-adv-x="198" 
d="M104 -70h-51v180h101zM68 751c10.667 10.667 23 16 37 16c14.667 0 27 -5.33301 37 -16c10.667 -10 16 -22.333 16 -37c0 -14 -5.33301 -26.333 -16 -37c-10 -10 -22.333 -15 -37 -15c-14 0 -26.333 5 -37 15c-10 10.667 -15 23 -15 37c0 14.667 5 27 15 37z" />
    <glyph glyph-name="semicolon" unicode="&#x37e;" horiz-adv-x="198" 
d="M104 -70h-51v180h101zM68 751c10.667 10.667 23 16 37 16c14.667 0 27 -5.33301 37 -16c10.667 -10 16 -22.333 16 -37c0 -14 -5.33301 -26.333 -16 -37c-10 -10 -22.333 -15 -37 -15c-14 0 -26.333 5 -37 15c-10 10.667 -15 23 -15 37c0 14.667 5 27 15 37z" />
    <glyph glyph-name="less" unicode="&#x3c;" horiz-adv-x="747" 
d="M686 1086v-123l-420 -246l420 -245v-123l-631 368z" />
    <glyph glyph-name="equal" unicode="=" horiz-adv-x="554" 
d="M50 858h454v-107h-454v107zM50 684h454v-107h-454v107z" />
    <glyph glyph-name="greater" unicode="&#x3e;" horiz-adv-x="743" 
d="M686 717l-631 -368v123l420 245l-420 246v123z" />
    <glyph glyph-name="question" unicode="?" horiz-adv-x="990" 
d="M439 150c-17.333 -17.333 -26 -38 -26 -62c0 -24.667 8.66699 -45.334 26 -62.001c16.667 -17.333 37.334 -26 62.001 -26c24 0 44.667 8.66699 62 26c17.333 16.667 26 37.334 26 62.001c0 24 -8.66699 44.667 -26 62s-38 26 -62 26
c-24.667 0 -45.334 -8.66699 -62.001 -26zM949 999c0 -90 -75.666 -173.333 -226.999 -250c-51.333 -26 -107.333 -49.667 -168 -71v-442h-106v524l38 8c84.667 25.333 162 58.666 232 99.999c82.667 48.667 124 92.334 124 131.001v100c0 60.667 -37.667 114.667 -113 162
c-70.667 44.667 -146.667 67 -228 67s-157.666 -22.333 -228.999 -67c-75.333 -47.333 -113 -101.333 -113 -162h-106c0 96.667 51 178.667 153 246c89.333 59.333 187.666 89 294.999 89s205.666 -29.667 294.999 -89c102 -67.333 153 -149.333 153 -246v-100z" />
    <glyph glyph-name="at" unicode="@" horiz-adv-x="1013" 
d="M661 664h-152c-43.333 0 -80.333 -8.33301 -111 -25c-28 -15.333 -42 -31 -42 -47c0 -16.667 14 -32.334 42 -47.001c30.667 -16.667 67.667 -25 111 -25s80.333 8.33301 111 25c27.333 14.667 41 30.334 41 47.001v72zM852 410c-32 -36 -69 -66.335 -111 -91.002
c-18 -10 -35.667 -10 -53 0c-18 10 -27 25.333 -27 46v82c-44.667 -22 -95.334 -33 -152.001 -33c-72.667 0 -134 17 -184 51c-50 34.667 -75 77 -75 127s25 92.333 75 127c50 34 111.333 51 184 51h152v72c0 16.667 -13.667 32.334 -41 47.001
c-30.667 16.667 -67.667 25 -111 25s-80.333 -8.33301 -111 -25c-28 -14.667 -42 -30.334 -42 -47.001v-53h-106v53c0 50 25 92.333 75 127c50 34 111.333 51 184 51s133.667 -17 183 -51c50 -34.667 75 -77 75 -127v-367l6 6c60 66.667 90 145.334 90 236.001
c0 98 -34.667 181.333 -104 250c-69.333 69.333 -152.666 104 -249.999 104c-98 0 -181.667 -34.667 -251 -104c-69.333 -68.667 -104 -152 -104 -250s34.667 -181.333 104 -250c69.333 -69.333 153 -104 251 -104h53v-107h-53c-127.333 0 -236 45 -326 135
s-135 198.667 -135 326s45 236 135 326s198.667 135 326 135c126.667 0 235 -45 325 -135s135 -198.667 135 -326c0 -117.333 -39 -219.666 -117 -306.999z" />
    <glyph glyph-name="A" unicode="A" horiz-adv-x="1280" 
d="M1238 0h-116l-141 342h-673l-141 -342h-115l593 1434zM352 448h585l-292 707z" />
    <glyph glyph-name="B" unicode="B" horiz-adv-x="1004" 
d="M570 106c76.667 0 142.334 27.3311 197.001 81.998c54 54.667 81 120.334 81 197.001s-27 142.334 -81 197.001c-54.667 54.667 -120.334 82 -197.001 82h-414v-558h414zM156 1328v-558.002h414c76.667 0 142.334 27.333 197.001 82c54 54.667 81 120.334 81 197.001
s-27 142.334 -81 197.001c-54.667 54.667 -120.334 82 -197.001 82h-414zM902 854.996c-33.333 -58 -79 -104 -137 -138c58 -34 103.667 -80 137 -138c35.333 -60 53 -124.667 53 -194c0 -106 -37.667 -196.667 -113 -272s-166 -113 -272 -113h-520v1434h520
c106 0 196.667 -37.667 272 -113s113 -166 113 -272c0 -69.333 -17.667 -134 -53 -194z" />
    <glyph glyph-name="C" unicode="C" 
d="M272 172c70 -44 146.668 -66.001 230.001 -66.001c85.333 0 162.333 21.333 231 64c73.333 45.333 110 100.333 110 165h107c0 -100.667 -51 -184 -153 -250c-88 -56.667 -186.333 -85 -295 -85c-112 0 -213.333 31 -304 93c-96 66.667 -144 147.334 -144 242.001v764
c0 96.667 51 178.667 153 246c89.333 59.333 187.666 89 294.999 89s205.666 -29.667 294.999 -89c102 -67.333 153 -149.333 153 -246h-107c0 60.667 -37.667 114.667 -113 162c-70.667 44.667 -146.667 67 -228 67s-157.666 -22.333 -228.999 -67
c-75.333 -47.333 -113 -101.333 -113 -162v-764c0 -62 37.333 -116.333 112 -163z" />
    <glyph glyph-name="D" unicode="D" horiz-adv-x="1011" 
d="M159 106l414 -0.00195312c76.667 0 142.334 27.333 197.001 82c54 54.667 81 120.334 81 197.001v664c0 76.667 -27 142.334 -81 197.001c-54.667 54.667 -120.334 82 -197.001 82h-414v-1222zM53 -0.00195312v1434h520c106 0 196.667 -37.667 272 -113
s113 -166 113 -272v-664c0 -106 -37.667 -196.667 -113 -272s-166 -113 -272 -113h-520z" />
    <glyph glyph-name="E" unicode="E" horiz-adv-x="1004" 
d="M955 1434v-106h-799v-558h414v-106h-414v-558h799v-106h-905v1434h905z" />
    <glyph glyph-name="F" unicode="F" horiz-adv-x="1004" 
d="M955 1434v-106h-799v-558h414v-106h-414v-664h-106v1434h905z" />
    <glyph glyph-name="G" unicode="G" horiz-adv-x="990" 
d="M191 93c-96 66.667 -143.999 147.333 -143.999 242v764c0 96.667 51 178.667 153 246c89.333 59.333 187.666 89 294.999 89s205.666 -29.667 294.999 -89c102 -67.333 153 -149.333 153 -246h-107c0 60.667 -37.667 114.667 -113 162
c-70.667 44.667 -146.667 67 -228 67s-157.666 -22.333 -228.999 -67c-75.333 -47.333 -113 -101.333 -113 -162v-764c0 -62 37.333 -116.333 112 -163c70 -44 146.667 -66 230 -66c85.333 0 162.333 21.333 231 64c73.333 45.333 110 100.333 110 165v200h-219v107h326
v-307c0 -100.667 -51 -184 -153 -250c-88 -56.667 -186.333 -85 -295 -85c-112 0 -213.333 31 -304 93z" />
    <glyph glyph-name="H" unicode="H" horiz-adv-x="1004" 
d="M954 1435v-1435h-106v664h-692v-664h-107v1435h107v-664h692v664h106z" />
    <glyph glyph-name="I" unicode="I" horiz-adv-x="198" 
d="M50 1434h106v-1434h-106v1434z" />
    <glyph glyph-name="J" unicode="J" horiz-adv-x="983" 
d="M200 85c-102 66 -153.002 149.334 -153.002 250.001h106c0 -64.667 37 -119.667 111 -165c68.667 -42.667 145.667 -64 231 -64c82.667 0 159.334 22 230.001 66c74 46.667 111 101 111 163v993h-182v106h289v-1099c0 -94.667 -48.333 -175.334 -145 -242.001
c-90 -62 -191 -93 -303 -93c-109.333 -0 -207.666 28.333 -294.999 85z" />
    <glyph glyph-name="K" unicode="K" horiz-adv-x="1068" 
d="M1014 1434l-574 -718l574 -716h-138l-530 664h-190v-663h-106v1433h106v-664h191l530 664h137z" />
    <glyph glyph-name="L" unicode="L" horiz-adv-x="1011" 
d="M157 1435v-1328h798v-107h-905v1435h107z" />
    <glyph glyph-name="M" unicode="M" horiz-adv-x="1322" 
d="M1269 1434v-1434h-106v1153l-505 -1149l-505 1149v-1153h-106v1434h106l505 -1153l505 1153h106z" />
    <glyph glyph-name="N" unicode="N" 
d="M953 1435v-1435h-106l-692 1218v-1218h-107v1435h107l692 -1218v1218h106z" />
    <glyph glyph-name="O" unicode="O" 
d="M272 1261c-75.333 -47.333 -113.001 -101.333 -113.001 -162v-764c0 -62 37.333 -116.333 112 -163c70 -44 146.667 -66 230 -66c85.333 0 162.333 21.333 231 64c73.333 45.333 110 100.333 110 165v764c0 60.667 -37.667 114.667 -113 162
c-70.667 44.667 -146.667 67 -228 67s-157.666 -22.333 -228.999 -67zM196.999 93c-96 66.667 -143.998 147.333 -143.998 242v764c0 96.667 51 178.667 153 246c89.333 59.333 187.666 89 294.999 89s205.666 -29.667 294.999 -89c102 -67.333 153 -149.333 153 -246v-764
c0 -100.667 -51 -184 -153 -250c-88 -56.667 -186.333 -85 -295 -85c-112 0 -213.333 31 -304 93z" />
    <glyph glyph-name="P" unicode="P" 
d="M571 770c76.667 0 142.334 27.3311 197.001 81.998c54 54.667 81 120.334 81 197.001s-27 142.334 -81 197.001c-54.667 54.667 -120.334 82 -197.001 82h-414v-558h414zM571 1434c106 0 196.667 -37.667 272 -113s113 -166 113 -272s-37.667 -196.667 -113 -272
s-166 -113 -272 -113h-414v-664h-106v1434h520z" />
    <glyph glyph-name="Q" unicode="Q" 
d="M796 228c28 33.333 41.999 69 41.999 107v764c0 60.667 -37.667 114.667 -113 162c-70.667 44.667 -146.667 67 -228 67s-157.666 -22.333 -228.999 -67c-75.333 -47.333 -113 -101.333 -113 -162v-764c0 -62 37.333 -116.333 112 -163c70 -44 146.667 -66 230 -66
c77.333 0 149 18.333 215 55l-88 89l75 75zM944.999 335c0 -67.333 -24.666 -128.334 -73.999 -183.001l73 -73l-75 -75l-80 79c-87.333 -55.333 -184.666 -83 -291.999 -83c-112 0 -213.333 31 -304 93c-96 66.667 -144 147.334 -144 242.001v764
c0 96.667 51 178.667 153 246c89.333 59.333 187.666 89 294.999 89s205.666 -29.667 294.999 -89c102 -67.333 153 -149.333 153 -246v-764z" />
    <glyph glyph-name="R" unicode="R" horiz-adv-x="1040" 
d="M573 771c76.667 0 142.334 27.332 197.001 81.999c54.667 54 82 119.667 82 197c0 76.667 -27.333 142.334 -82 197.001c-54.667 54 -120.334 81 -197.001 81h-413v-557h413zM990 -0.000976562h-118.999l-307 664h-404v-664h-107v1435h520
c106 0 196.667 -37.667 272 -113s113 -166 113 -272c0 -88 -26.667 -166.667 -80 -236c-52.667 -68 -120.334 -113.333 -203.001 -136z" />
    <glyph glyph-name="S" unicode="S" horiz-adv-x="983" 
d="M191 93c-96 66.667 -143.997 147.332 -143.997 241.999h106c0 -62 37.333 -116.333 112 -163c70 -44 146.667 -66 230 -66c85.333 0 162.333 21.333 231 64c73.333 45.333 110 100.333 110 165v100c0 38.667 -41.333 82.334 -124 131.001
c-70.667 41.333 -148.334 74.666 -233.001 99.999c-68.667 20.667 -137.334 48.334 -206.001 83.001c-150.667 76.667 -226 160 -226 250v100c0 96.667 51 178.667 153 246c89.333 59.333 187.666 89 294.999 89s205.666 -29.667 294.999 -89
c102 -67.333 153 -149.333 153 -246h-107c0 60.667 -37.667 114.667 -113 162c-70.667 44.667 -146.667 67 -228 67s-157.666 -22.333 -228.999 -67c-75.333 -47.333 -113 -101.333 -113 -162v-100c0 -38.667 41.667 -82.334 125 -131.001
c70 -41.333 147.333 -74.666 232 -99.999c69.333 -21.333 138 -49.333 206 -84c151.333 -76.667 227 -159.667 227 -249v-100c0 -100.667 -51 -184 -153 -250c-88 -56.667 -186.333 -85 -295 -85c-112 0 -213.333 31 -304 93z" />
    <glyph glyph-name="T" unicode="T" 
d="M955 1434v-106h-399v-1328h-107v1328h-399v106h905z" />
    <glyph glyph-name="U" unicode="U" horiz-adv-x="983" 
d="M194 93c-96 66.667 -144 146.999 -144 240.999v1100h106v-1100c0 -62 37 -116 111 -162c70 -44 146.333 -66 229 -66c85.333 0 162.333 21.333 231 64c73.333 44.667 110 99.334 110 164.001v1100h106v-1100c0 -100.667 -51 -183.667 -153 -249
c-87.333 -56.667 -185.333 -85 -294 -85c-111.333 0 -212 31 -302 93z" />
    <glyph glyph-name="V" unicode="V" horiz-adv-x="1287" 
d="M1235 1435l-593 -1435l-593 1435h115l478 -1157l478 1157h115z" />
    <glyph glyph-name="W" unicode="W" horiz-adv-x="1959" 
d="M1913 1434l-593 -1434l-340 822l-340 -822l-593 1434h115l478 -1156l340 822l340 -822l478 1156h115z" />
    <glyph glyph-name="X" unicode="X" horiz-adv-x="1089" 
d="M1036 1435l-432 -717l432 -718h-125l-369 614l-369 -614h-124l431 718l-431 717h124l369 -614l369 614h125z" />
    <glyph glyph-name="Y" unicode="Y" horiz-adv-x="1082" 
d="M1031 1435l-438 -735v-700h-106v705l-439 730h123l368 -612l369 612h123z" />
    <glyph glyph-name="Z" unicode="Z" horiz-adv-x="1082" 
d="M1037 1434l-799 -1328h758v-106h-946l798 1328h-757v106h946z" />
    <glyph glyph-name="bracketleft" unicode="[" horiz-adv-x="332" 
d="M274 1434v-107h-118v-1296h118v-106h-224v1509h224z" />
    <glyph glyph-name="backslash" unicode="\" horiz-adv-x="644" 
d="M76 1436l614 -1512h-113l-613 1512h112z" />
    <glyph glyph-name="bracketright" unicode="]" horiz-adv-x="329" 
d="M274 1434v-1509h-224v106h117v1296h-117v107h224z" />
    <glyph glyph-name="asciicircum" unicode="^" horiz-adv-x="354" 
d="M139 1294h-79l119 202l118 -202h-79l-39 67z" />
    <glyph glyph-name="underscore" unicode="_" horiz-adv-x="559" 
d="M504 -1v-106h-454v106h454z" />
    <glyph glyph-name="grave" unicode="`" horiz-adv-x="304" 
d="M54 1496h101l81 -180h-51z" />
    <glyph glyph-name="a" unicode="a" horiz-adv-x="883" 
d="M732 415l-287 0.000976562c-81.333 0 -150.333 -16.667 -207 -50c-54 -30.667 -81 -65.334 -81 -104.001s27 -73.667 81 -105c56.667 -33.333 125.667 -50 207 -50s150.333 16.667 207 50c53.333 31.333 80 66.333 80 105v154zM165 861.001
c76 50 169.334 74.999 280.001 74.999s204 -25 280 -75c76 -50.667 114 -112.334 114 -185.001v-676h-107v81c-76.667 -54 -172.334 -81 -287.001 -81c-110.667 0 -204 25.333 -280 76c-76 50 -114 111.667 -114 185c0 72.667 38 134.334 114 185.001
c76 50 169.333 75 280 75h287v155c0 38.667 -26.667 73.334 -80 104.001c-56.667 33.333 -125.667 50 -207 50s-150.333 -16.667 -207 -50c-54 -30.667 -81 -65.334 -81 -104.001v-54h-106v54c0 72.667 38 134.334 114 185.001z" />
    <glyph glyph-name="b" unicode="b" horiz-adv-x="877" 
d="M727 675c0 38.667 -26.667 73.667 -80 105c-57.333 33.333 -126.333 50 -207 50c-81.333 0 -150.333 -16.667 -207 -50c-54 -31.333 -81 -66.333 -81 -105v-414c0 -38.667 27 -73.667 81 -105c56.667 -33.333 125.667 -50 207 -50c80.667 0 149.667 16.667 207 50
c53.333 31.333 80 66.333 80 105v414zM152 855c77.333 54 173.333 81 288 81c110 0 203 -25.333 279 -76c76.667 -50 115 -111.667 115 -185v-414c0 -73.333 -38.333 -135 -115 -185c-76 -50.667 -169 -76 -279 -76c-114.667 0 -210.667 27 -288 81v-81h-106v1434h106v-579z
" />
    <glyph glyph-name="c" unicode="c" horiz-adv-x="884" 
d="M167 76c-76 50 -114 111.667 -114 185v415c0 72.667 38 134.334 114 185.001c76 50 169.333 75 280 75s204 -25 280 -75c76 -50.667 114 -112.334 114 -185.001v-54h-107v54c0 38.667 -26.667 73.334 -80 104.001c-57.333 33.333 -126.333 50 -207 50
c-81.333 0 -150.333 -16.667 -207 -50c-54 -30.667 -81 -65.334 -81 -104.001v-415c0 -38.667 27 -73.667 81 -105c56.667 -33.333 125.667 -50 207 -50c80.667 0 149.667 16.667 207 50c53.333 31.333 80 66.333 80 105v53h107v-53c0 -73.333 -38 -135 -114 -185
c-76 -50.667 -169.333 -76 -280 -76s-204 25.333 -280 76z" />
    <glyph glyph-name="d" unicode="d" horiz-adv-x="877" 
d="M152 261c0 -38.667 27 -73.667 81 -105c56.667 -33.333 125.667 -50 207 -50c80.667 0 149.667 16.667 207 50c53.333 31.333 80 66.333 80 105v414c0 38.667 -26.667 73.667 -80 105c-57.333 33.333 -126.333 50 -207 50c-81.333 0 -150.333 -16.667 -207 -50
c-54 -31.333 -81 -66.333 -81 -105v-414zM440 936c114.667 0 210.334 -27 287.001 -81v579h107v-1434h-107v81c-76.667 -54 -172.334 -81 -287.001 -81c-110.667 -0 -204 25.333 -280 76c-76 50 -114 111.667 -114 185v414c0 73.333 38 135 114 185
c76 50.667 169.333 76 280 76z" />
    <glyph glyph-name="e" unicode="e" horiz-adv-x="883" 
d="M156 521h575v154c0 38.667 -26.667 73.667 -80 105c-57.333 32.667 -126.333 49 -207 49c-81.333 0 -150.333 -16.333 -207 -49c-54 -31.333 -81 -66.333 -81 -105v-154zM156 415v-154c0 -38.667 27 -73.667 81 -105c56.667 -33.333 125.667 -50 207 -50
c80.667 0 149.667 16.667 207 50c53.333 31.333 80 66.333 80 105v53h106v-53c0 -73.333 -38 -135.333 -114 -186c-76 -50 -169 -75 -279 -75c-110.667 0 -204 25 -280 75c-76 50.667 -114 112.667 -114 186v414c0 73.333 38 135 114 185c76 50.667 169.333 76 280 76
c110 0 203 -25.333 279 -76c76 -50 114 -111.667 114 -185v-260h-681z" />
    <glyph glyph-name="f" unicode="f" horiz-adv-x="559" 
d="M500 1435v-107h-53c-81.333 0 -150.333 -16.333 -207 -49c-53.333 -31.333 -80 -66.333 -80 -105v-237h273v-107h-273v-830h-107v1174c0 73.333 38 135 114 185c76 50.667 169.333 76 280 76h53z" />
    <glyph glyph-name="g" unicode="g" horiz-adv-x="883" 
d="M732 674c0 38.667 -26.667 73.334 -80 104.001c-57.333 33.333 -126.333 50 -207 50c-81.333 0 -150.333 -16.667 -207 -50c-54 -30.667 -81 -65.334 -81 -104.001v-415c0 -38.667 27 -73.334 81 -104.001c56.667 -33.333 125.667 -50 207 -50
c80.667 0 149.667 16.667 207 50c53.333 30.667 80 65.334 80 104.001v415zM732 -302c0 38.667 -26.667 73.334 -80 104.001c-57.333 33.333 -126.333 50 -207 50c-81.333 0 -150.333 -16.667 -207 -50c-54 -30.667 -81 -65.334 -81 -104.001v-107
c0 -38.667 27 -73.667 81 -105c56.667 -33.333 125.667 -50 207 -50c80.667 0 149.667 16.667 207 50c53.333 31.333 80 66.333 80 105v107zM919 965l0.00195312 -105.999h-53c-34 0 -64.667 -13.667 -92 -41c42.667 -43.333 64 -91.333 64 -144v-415
c0 -72.667 -38 -134.334 -114 -185.001c-76 -50 -169 -75 -279 -75c-86.667 0 -164.334 16.333 -233.001 49c-17.333 -22 -26.333 -44.333 -27 -67c-0.666992 -23.333 8.66602 -47.333 27.999 -72c68 32.667 145.333 49 232 49c110 0 203 -25 279 -75
c76 -50.667 114 -112.334 114 -185.001v-107c0 -73.333 -38 -135.333 -114 -186c-76 -50 -169 -75 -279 -75c-110.667 0 -204 25 -280 75c-76 50.667 -114 112.667 -114 186v107c0 56.667 24.333 107.334 73 152.001c-32 43.333 -47 88.666 -45 135.999
c1.33301 42.667 16.333 83 45 121c-48.667 44.667 -73 95.334 -73 152.001v415c0 73.333 38 135 114 185c76 50.667 169.333 76 280 76c91.333 0 172 -18 242 -54c49.333 56 109 84 179 84h53z" />
    <glyph glyph-name="h" unicode="h" horiz-adv-x="884" 
d="M153 841c77.333 54 173.333 81 288 81c110 0 203 -25.333 279 -76c76.667 -50 115 -111.667 115 -185v-661h-107v661c0 38.667 -26.667 73.667 -80 105c-57.333 32.667 -126.333 49 -207 49c-81.333 0 -150.333 -16.333 -207 -49c-54 -31.333 -81 -66.333 -81 -105v-661
h-106v1434h106v-593v0z" />
    <glyph glyph-name="i" unicode="i" horiz-adv-x="205" 
d="M68 1419c10.667 10 23 15 37 15c14.667 0 27 -5 37 -15c10 -10.667 15 -23 15 -37c0 -14.667 -5 -27 -15 -37c-10 -10.667 -22.333 -16 -37 -16c-14 0 -26.333 5.33301 -37 16c-10 10 -15 22.333 -15 37c0 14 5 26.333 15 37zM158 0h-106v922h106v-922z" />
    <glyph glyph-name="j" unicode="j" horiz-adv-x="203" 
d="M-292 -670l0.000976562 107h53c81.333 0 150.666 16.333 207.999 49c53.333 31.333 80 66.333 80 105v1331h106v-1331c0 -73.333 -38 -135 -114 -185c-76 -50.667 -169.333 -76 -280 -76h-53zM66.001 1419c10 10 22.333 15 37 15s27 -5 37 -15c10 -10.667 15 -23 15 -37
c0 -14.667 -5 -27 -15 -37c-10 -10.667 -22.333 -16 -37 -16s-27 5.33301 -37 16c-10 10 -15 22.333 -15 37c0 14 5 26.333 15 37z" />
    <glyph glyph-name="k" unicode="k" horiz-adv-x="955" 
d="M156 1434v-921h199l409 408h140l-452 -461l452 -460h-151l-399 407h-198v-407h-106v1434h106z" />
    <glyph glyph-name="l" unicode="l" horiz-adv-x="198" 
d="M50 1434h106v-1434h-106v1434z" />
    <glyph glyph-name="m" unicode="m" horiz-adv-x="1569" 
d="M784 794c74.667 85.333 188.333 128 341 128c110 0 203 -25.333 279 -76c76 -50 114 -111.667 114 -185v-661h-106v661c0 38.667 -26.667 73.667 -80 105c-57.333 32.667 -126.333 49 -207 49c-81.333 0 -150.333 -16.333 -207 -49c-54 -31.333 -81 -66.333 -81 -105
v-661h-106v661c0 38.667 -26.667 73.667 -80 105c-57.333 32.667 -126.333 49 -207 49c-81.333 0 -150.333 -16.333 -207 -49c-54 -31.333 -81 -66.333 -81 -105v-661h-106v922h106v-81c77.333 54 173.333 81 288 81c152 0 265.333 -42.667 340 -128z" />
    <glyph glyph-name="n" unicode="n" horiz-adv-x="883" 
d="M157 841c77.333 54 173.333 81 288 81c110.667 0 204 -25 280 -75c76 -50.667 114 -112.667 114 -186v-661h-107v661c0 38.667 -26.667 73.667 -80 105c-57.333 33.333 -126.333 50 -207 50c-81.333 0 -150.333 -16.667 -207 -50c-54 -31.333 -81 -66.333 -81 -105v-661
h-106v922h106v-81v0z" />
    <glyph glyph-name="o" unicode="o" horiz-adv-x="883" 
d="M234 780c-54 -31.333 -81 -66.333 -81 -105v-414c0 -38.667 27 -73.667 81 -105c56.667 -33.333 125.667 -50 207 -50c80.667 0 149.667 16.667 207 50c53.333 31.333 80 66.333 80 105v414c0 38.667 -26.667 73.667 -80 105c-57.333 32.667 -126.333 49 -207 49
c-81.333 0 -150.333 -16.333 -207 -49zM161 75c-76 50.667 -114 112.667 -114 186v414c0 73.333 38 135 114 185c76 50.667 169.333 76 280 76c110 0 203 -25.333 279 -76c76 -50 114 -111.667 114 -185v-414c0 -73.333 -38 -135.333 -114 -186c-76 -50 -169 -75 -279 -75
c-110.667 0 -204 25 -280 75z" />
    <glyph glyph-name="p" unicode="p" horiz-adv-x="873" 
d="M724 663c0 38 -26.667 72.333 -80 103c-56 33.333 -124.333 50 -205 50c-80 0 -148.333 -16.667 -205 -50c-53.333 -30.667 -80 -65 -80 -103v-411c0 -38.667 26.667 -73.334 80 -104.001c56.667 -32.667 125 -49 205 -49c80.667 0 149 16.333 205 49
c53.333 30.667 80 65.334 80 104.001v411zM154 841c76.667 53.333 171.667 80 285 80c109.333 0 201.666 -25 276.999 -75s113 -111 113 -183v-411c0 -72.667 -37.667 -134 -113 -184c-75.333 -49.333 -167.666 -74 -276.999 -74c-113.333 0 -208.333 26.667 -285 80v-743
h-105v1590h105v-80z" />
    <glyph glyph-name="q" unicode="q" horiz-adv-x="884" 
d="M154 252c0 -38.667 26.667 -73.334 80 -104.001c56.667 -32.667 125 -49 205 -49c80.667 0 149 16.333 205 49c53.333 30.667 80 65.334 80 104.001v411c0 38 -26.667 72.333 -80 103c-56 33.333 -124.333 50 -205 50c-80 0 -148.333 -16.667 -205 -50
c-53.333 -30.667 -80 -65 -80 -103v-411zM439 921c114 0 209 -26.667 285 -80v80h105v-1590h-105v743c-76 -53.333 -171 -80 -285 -80c-109.333 0 -201.666 24.667 -276.999 74c-75.333 50 -113 111.333 -113 184v411c0 72 37.667 133 113 183s167.666 75 276.999 75z" />
    <glyph glyph-name="r" unicode="r" horiz-adv-x="548" 
d="M496 936v-106h-53c-81.333 0 -150.333 -16.667 -207 -50c-54 -31.333 -81 -66.333 -81 -105v-675h-106v922h106v-67c77.333 54 173.333 81 288 81h53z" />
    <glyph glyph-name="s" unicode="s" horiz-adv-x="866" 
d="M181 59c-88 44 -132.004 100.667 -132.004 170h106c0 -28 28.333 -55 85 -81c58.667 -28 123.334 -42 194.001 -42s135 13 193 39c57.333 25.333 86 53.333 86 84v62c-10.667 23.333 -58 50.333 -142 81c-51.333 18.667 -100.666 33.334 -147.999 44.001
c-58 12.667 -115.667 30 -173 52c-134 50 -201 108.667 -201 176v63c0 68.667 44 125.334 132 170.001c77.333 39.333 161.666 59 252.999 59c92 0 176.667 -19.667 254 -59c88 -44.667 132 -101.334 132 -170.001h-107c0 28 -28.333 55 -85 81c-59.333 28 -124 42 -194 42
c-69.333 0 -133.666 -14 -192.999 -42c-57.333 -26 -86 -53 -86 -81v-62c10 -23.333 57.333 -50.333 142 -81c50 -18.667 99.667 -33.334 149 -44.001c58 -13.333 115.667 -30.666 173 -51.999c134 -50.667 201 -109.334 201 -176.001v-63c0 -73.333 -46.333 -132 -139 -176
c-73.333 -35.333 -155.666 -53 -246.999 -53s-175.666 19.667 -252.999 59z" />
    <glyph glyph-name="t" unicode="t" horiz-adv-x="537" 
d="M156 830v-569c0 -38.667 26.667 -73.667 80 -105c56.667 -32.667 125.667 -49 207 -49h53v-107h-53c-110.667 -0 -204 25.333 -280 76c-76 50 -114 111.667 -114 185v1174h107v-498h340v-107h-340z" />
    <glyph glyph-name="u" unicode="u" horiz-adv-x="891" 
d="M732 81c-76.667 -54 -172.333 -81 -287 -81c-110.667 -0 -204 25.333 -280 76c-76 50 -114 111.667 -114 185v661h106v-661c0 -38.667 27 -73.667 81 -105c56.667 -33.333 125.667 -50 207 -50c80.667 0 149.667 16.667 207 50c53.333 31.333 80 66.333 80 105v661h107
v-922h-107v81v0z" />
    <glyph glyph-name="v" unicode="v" horiz-adv-x="1077" 
d="M542 -81l-493 1003h119l374 -761l374 761h119z" />
    <glyph glyph-name="w" unicode="w" horiz-adv-x="1848" 
d="M1785 922l-492 -1003l-375 763l-375 -763l-493 1003h119l374 -761l375 761l375 -761l374 761h118z" />
    <glyph glyph-name="x" unicode="x" horiz-adv-x="1010" 
d="M578 468l388 -468h-139l-319 385l-319 -385h-138l388 468l-388 468h138l319 -384l319 384h139z" />
    <glyph glyph-name="y" unicode="y" horiz-adv-x="883" 
d="M830 921l-0.00195312 -1332c0 -72 -37.667 -133 -113 -183s-167.666 -75 -276.999 -75h-53v105h53c80.667 0 149 16.667 205 50c53.333 30.667 80 65 80 103v485c-76 -53.333 -171 -80 -285 -80c-109.333 0 -201.666 24.667 -276.999 74
c-75.333 50 -113 111.333 -113 184v669h105v-669c0 -38.667 26.667 -73.334 80 -104.001c56.667 -32.667 125 -49 205 -49c80.667 0 149 16.333 205 49c53.333 30.667 80 65.334 80 104.001v669h105z" />
    <glyph glyph-name="z" unicode="z" horiz-adv-x="990" 
d="M889 0h-847l681 829h-622v107h847l-681 -830h622v-106z" />
    <glyph glyph-name="braceleft" unicode="{" horiz-adv-x="438" 
d="M391 1313c-78 -47.333 -117 -102.001 -117 -164.001v-245c0 -86 -41.333 -161.333 -124 -226c82.667 -64 124 -138.667 124 -224v-244c0 -63.333 39 -118.666 117 -165.999v-119c-66.667 29.333 -119.667 68 -159 116c-43.333 52 -65 108.333 -65 169v244
c0 62 -39 116.667 -117 164v121c78 46.667 117 101.667 117 165v245c0 96 51 177.667 153 245c22 14.667 45.667 28 71 40v-121z" />
    <glyph glyph-name="bar" unicode="|" horiz-adv-x="204" 
d="M51 1434h106v-1509h-106v1509z" />
    <glyph glyph-name="braceright" unicode="}" horiz-adv-x="446" 
d="M50 1434c25.333 -12 49 -25.332 71 -39.999c102 -67.333 153 -149 153 -245v-245c0 -63.333 39 -118.333 117 -165v-121c-78 -47.333 -117 -102 -117 -164v-244c0 -60.667 -21.667 -117 -65 -169c-39.333 -48 -92.333 -86.667 -159 -116v119
c78 47.333 117 102.666 117 165.999v244c0 85.333 41.333 160 124 224c-82.667 64.667 -124 140 -124 226v245c0 62 -39 116.667 -117 164v121z" />
    <glyph glyph-name="asciitilde" unicode="~" horiz-adv-x="757" 
d="M393 1282c-34.667 24 -52.001 53.667 -52.001 89c0 11.333 -9.66699 22 -29 32c-21.333 12 -47 18 -77 18s-56 -6 -78 -18c-18.667 -10 -28 -20.667 -28 -32v-38h-76v38c0 35.333 17.667 65 53 89c34.667 24 77.667 36 129 36c50.667 0 93.667 -12 129 -36
c34.667 -24 52 -53.667 52 -89c0 -11.333 9.66699 -22.333 29 -33c21.333 -11.333 47 -17 77 -17c30.667 0 56.667 5.66699 78 17c19.333 10.667 29 21.667 29 33v38h75v-38c0 -35.333 -17.333 -65 -52 -89c-35.333 -24.667 -78.666 -37 -129.999 -37
c-50.667 0 -93.667 12.333 -129 37z" />
    <glyph glyph-name="exclamdown" unicode="&#xa1;" horiz-adv-x="276" 
d="M138 1214c24 0 44.667 -8.66699 62 -26c17.333 -16.667 26 -37.334 26 -62.001c0 -24 -8.66699 -44.667 -26 -62s-38 -26 -62 -26c-24.667 0 -45.334 8.66699 -62.001 26c-17.333 17.333 -26 38 -26 62c0 24.667 8.66699 45.334 26 62.001
c16.667 17.333 37.334 26 62.001 26zM85 978h106l22 -1198h-151z" />
    <glyph glyph-name="cent" unicode="&#xa2;" horiz-adv-x="884" 
d="M159 510c0 -34 21.667 -65.667 65 -95c45.333 -30.667 102 -49.667 170 -57v718c-68 -7.33301 -124.667 -26.333 -170 -57c-43.333 -29.333 -65 -61 -65 -95v-414zM734 871v53c0 34 -21.333 65.667 -64 95c-45.333 30.667 -102 49.667 -170 57v-718
c68 7.33301 124.667 26.333 170 57c42.667 29.333 64 61 64 95v53h107v-53c0 -66.667 -32.667 -124.667 -98 -174c-64 -48 -145 -76.333 -243 -85v-251h-106v251c-98 8.66699 -179.333 37 -244 85c-64.667 49.333 -97 107.333 -97 174v414c0 66.667 32.333 124.667 97 174
c64.667 48 146 76.333 244 85v251h106v-251c98 -8.66699 179 -37 243 -85c65.333 -49.333 98 -107.333 98 -174v-53h-107z" />
    <glyph glyph-name="sterling" unicode="&#xa3;" horiz-adv-x="1153" 
d="M316 289h-81c-22.667 0 -42 -9 -58 -27s-24 -39.333 -24 -64c0 -25.333 8 -47 24 -65s35.333 -27 58 -27s41.667 9 57 27c16 18 24 39.667 24 65v91zM997 1120v52.999c0 38.667 -26.667 73.667 -80 105c-56.667 33.333 -125.667 50 -207 50
c-80.667 0 -149.667 -16.667 -207 -50c-53.333 -31.333 -80 -66.333 -80 -105v-403h308v-106h-308v-403c0 -38.667 26.667 -73.667 80 -105c57.333 -33.333 126.333 -50 207 -50c81.333 0 150.333 16.667 207 50c53.333 31.333 80 66.333 80 105v53h107v-53
c0 -73.333 -38 -135 -114 -185c-76 -50.667 -169.333 -76 -280 -76c-130 0 -234 33.333 -312 100c-36 -66.667 -90.333 -100 -163 -100c-52 0 -96.333 19.333 -133 58s-55 85.334 -55 140.001c0 54 18.333 100.333 55 139s81 58 133 58h81v269h-167v106h167v403
c0 73.333 38 135.333 114 186c76.667 50 170 75 280 75c110.667 0 204 -25 280 -75c76 -50.667 114 -112.667 114 -186v-53h-107z" />
    <glyph glyph-name="currency" unicode="&#xa4;" horiz-adv-x="1014" 
d="M260 967c-69.333 -69.333 -104 -152.666 -104 -249.999s34.667 -180.666 104 -249.999c68.667 -68.667 151.667 -103 249 -103s180.666 34.333 249.999 103c69.333 69.333 104 152.666 104 249.999s-34.667 180.666 -104 249.999
c-69.333 68.667 -152.666 103 -249.999 103s-180.333 -34.333 -249 -103zM870 1002c66 -83.333 99 -178.333 99 -285s-33 -201.667 -99 -285l68 -69l-75 -75l-69 69c-83.333 -66 -178.333 -99 -285 -99c-106 0 -200.667 33 -284 99l-69 -69l-75 75l68 69
c-66 83.333 -99 178.333 -99 285s33 201.667 99 285l-68 69l75 75l69 -69c83.333 66 178 99 284 99c106.667 0 201.667 -33 285 -99l69 69l75 -75z" />
    <glyph glyph-name="yen" unicode="&#xa5;" horiz-adv-x="1089" 
d="M1036 1435l-345 -578h345v-106h-408l-30 -51v-16h438v-106h-438v-578h-106v578h-439v106h439v21l-28 46h-411v106h347l-347 578h123l348 -578h41l348 578h123z" />
    <glyph glyph-name="brokenbar" unicode="&#xa6;" horiz-adv-x="198" 
d="M51 1434h106v-656h-106v656zM51 581h106v-656h-106v656z" />
    <glyph glyph-name="section" unicode="&#xa7;" horiz-adv-x="989" 
d="M838 766c0 38 -41.333 81.334 -124 130.001c-70 40.667 -147.333 74 -232 100c-83.333 -2.66699 -157.333 -25 -222 -67c-69.333 -44.667 -104 -98.334 -104 -161.001v-100c0 -38 41.333 -81.333 124 -130c70.667 -41.333 148 -75 232 -101
c83.333 3.33301 157.333 26 222 68c69.333 44.667 104 98 104 160v101zM512 1098c68.667 -20.667 137.335 -48.666 206.002 -83.999c150.667 -76.667 226 -159.334 226 -248.001v-101c0 -100.667 -50.667 -183.667 -152 -249c-30 -19.333 -63 -35.666 -99 -48.999
c9.33301 -4 17.666 -8 24.999 -12c150.667 -76.667 226 -160 226 -250v-100c0 -96.667 -50.667 -178.667 -152 -246c-89.333 -59.333 -187.666 -89 -294.999 -89c-106.667 0 -205 29.667 -295 89c-101.333 67.333 -152 149.333 -152 246h106
c0 -60.667 37.667 -114.667 113 -162c70.667 -44 146.667 -66 228 -66s157.666 22 228.999 66c74.667 47.333 112 101.333 112 162v100c0 37.333 -39 79.666 -117 126.999c-66 39.333 -140.667 72.333 -224 99v0c-5.33301 2 -10.333 3.66699 -15 5
c-68.667 20.667 -137.334 48.334 -206.001 83.001c-150.667 76.667 -226 159.667 -226 249v100c0 100.667 51 184 153 250c29.333 19.333 62 35.666 98 48.999l-25 12c-150.667 76 -226 159 -226 249v101c0 96 50.667 177.667 152 245c90 59.333 188.333 89 295 89
c107.333 0 205.666 -29.667 294.999 -89c101.333 -67.333 152 -149 152 -245h-106c0 60.667 -37.333 114.334 -112 161.001c-71.333 44.667 -147.666 67 -228.999 67s-157.333 -22.333 -228 -67c-75.333 -46.667 -113 -100.334 -113 -161.001v-101
c0 -37.333 39 -79.333 117 -126c66 -40 140.667 -73 224 -99v0v0c5.33301 -2 10.333 -3.66699 15 -5z" />
    <glyph glyph-name="dieresis" unicode="&#xa8;" horiz-adv-x="347" 
d="M64 1481c10.667 10 23 15 37 15c14.667 0 27 -5 37 -15c10.667 -10 16 -22.333 16 -37s-5.33301 -27 -16 -37c-10 -10 -22.333 -15 -37 -15c-14 0 -26.333 5 -37 15c-10 10 -15 22.333 -15 37s5 27 15 37zM190 1481c10.667 10 23 15 37 15c14.667 0 27 -5 37 -15
c10.667 -10 16 -22.333 16 -37s-5.33301 -27 -16 -37c-10 -10 -22.333 -15 -37 -15c-14 0 -26.333 5 -37 15c-10 10 -15 22.333 -15 37s5 27 15 37z" />
    <glyph glyph-name="copyright" unicode="&#xa9;" horiz-adv-x="1018" 
d="M258 967c-69.333 -68.667 -104 -152 -104 -250s34.667 -181.333 104 -250c69.333 -69.333 153 -104 251 -104c97.333 0 180.666 34.667 249.999 104c69.333 68.667 104 152 104 250s-34.667 181.333 -104 250c-69.333 69.333 -152.666 104 -249.999 104
c-98 0 -181.667 -34.667 -251 -104zM183 391c-90 90 -135 198.667 -135 326s45 236 135 326s198.667 135 326 135c126.667 0 235 -45 325 -135s135 -198.667 135 -326s-45 -236 -135 -326s-198.333 -135 -325 -135c-127.333 0 -236 45 -326 135zM764 646h-106v-54
c0 -16 -13.667 -31.333 -41 -46c-30 -16.667 -66 -25 -108 -25c-42.667 0 -79 8.33301 -109 25c-26.667 14.667 -40 30 -40 46v250c0 16 13.333 31.333 40 46c30 16.667 66.333 25 109 25c42 0 78 -8.33301 108 -25c27.333 -14.667 41 -30 41 -46v-54h106v54
c0 49.333 -24.667 91.333 -74 126c-49.333 34 -109.666 51 -180.999 51c-72 0 -132.667 -17 -182 -51c-49.333 -34.667 -74 -76.667 -74 -126v-250c0 -49.333 24.667 -91.333 74 -126c49.333 -34 110 -51 182 -51c71.333 0 131.666 17 180.999 51
c49.333 34.667 74 76.667 74 126v54z" />
    <glyph glyph-name="ordfeminine" unicode="&#xaa;" horiz-adv-x="648" 
 />
    <glyph glyph-name="guillemotleft" unicode="&#xab;" horiz-adv-x="775" 
d="M726 995v-51l-329 -226l329 -227v-51l-475 278zM525 995v-51l-329 -226l329 -227v-51l-475 278z" />
    <glyph glyph-name="logicalnot" unicode="&#xac;" horiz-adv-x="1014" 
 />
    <glyph glyph-name="registered" unicode="&#xae;" horiz-adv-x="1030" 
d="M603 787c12.667 12 19 26.667 19 44s-6.33301 32 -19 44c-12 12 -26.333 18 -43 18h-109v-124h109c16.667 0 31 6 43 18zM750 449c82 70.667 122.999 159.999 122.999 267.999c0 98 -34.667 181.333 -104 250c-69.333 69.333 -152.666 104 -249.999 104
c-98 0 -181.667 -34.667 -251 -104c-69.333 -68.667 -104 -152 -104 -250s34.667 -181.333 104 -250c69.333 -69.333 153 -104 251 -104c80.667 0 152.667 24.667 216 74h-95l-105 228h-84v-228h-104v560h213c45.333 0 84.333 -16.333 117 -49c32.667 -32 49 -71 49 -117
c0 -65.333 -28.667 -113.666 -86 -144.999zM192.999 1043c90 90 198.667 135 326 135c126.667 0 235 -45 325 -135s135 -198.667 135 -326s-45 -236 -135 -326s-198.333 -135 -325 -135c-127.333 0 -236 45 -326 135s-135 198.667 -135 326s45 236 135 326z" />
    <glyph glyph-name="macron" unicode="&#xaf;" horiz-adv-x="559" 
d="M504 1496v-106h-454v106h454z" />
    <glyph glyph-name="degree" unicode="&#xb0;" horiz-adv-x="446" 
d="M177 1368c-12 -12 -18 -26.667 -18 -44s6 -32 18 -44c12.667 -12 27.334 -18 44.001 -18c17.333 0 32 6 44 18s18 26.667 18 44s-6 32 -18 44s-26.667 18 -44 18c-16.667 0 -31.334 -6 -44.001 -18zM100 1202c-34 34 -51 74.667 -51 122s17 88 51 122
c33.333 33.333 73.666 50 120.999 50s88 -16.667 122 -50c33.333 -34 50 -74.667 50 -122s-16.667 -88 -50 -122c-34 -33.333 -74.667 -50 -122 -50s-87.666 16.667 -120.999 50z" />
    <glyph glyph-name="plusminus" unicode="&#xb1;" horiz-adv-x="559" 
d="M330 944v-174h174v-106h-174v-174h-106v174h-174v106h174v174h106zM504 410v-106h-454v106h454z" />
    <glyph glyph-name="uni00B2" unicode="&#xb2;" horiz-adv-x="1014" 
 />
    <glyph glyph-name="uni00B3" unicode="&#xb3;" horiz-adv-x="1014" 
 />
    <glyph glyph-name="acute" unicode="&#xb4;" horiz-adv-x="272" 
d="M97 1316h-51l80 180h102z" />
    <glyph glyph-name="mu" unicode="&#xb5;" horiz-adv-x="1180" 
 />
    <glyph glyph-name="paragraph" unicode="&#xb6;" horiz-adv-x="849" 
d="M169 740c-79.333 79.333 -119 175.333 -119 288c0 112 39.667 207.667 119 287s175 119 287 119h107v-1434h-107v621c-112 0 -207.667 39.667 -287 119zM790 0h-107v1434h107v-1434z" />
    <glyph glyph-name="periodcentered" unicode="&#xb7;" horiz-adv-x="212" 
d="M68 89c10.667 10.667 23 16 37 16c14.667 0 27 -5.33301 37 -16c10.667 -10 16 -22.333 16 -37c0 -14 -5.33301 -26.333 -16 -37c-10 -10 -22.333 -15 -37 -15c-14 0 -26.333 5 -37 15c-10 10.667 -15 23 -15 37c0 14.667 5 27 15 37z" />
    <glyph glyph-name="periodcentered" unicode="&#x2219;" horiz-adv-x="212" 
d="M68 89c10.667 10.667 23 16 37 16c14.667 0 27 -5.33301 37 -16c10.667 -10 16 -22.333 16 -37c0 -14 -5.33301 -26.333 -16 -37c-10 -10 -22.333 -15 -37 -15c-14 0 -26.333 5 -37 15c-10 10.667 -15 23 -15 37c0 14.667 5 27 15 37z" />
    <glyph glyph-name="cedilla" unicode="&#xb8;" horiz-adv-x="1024" 
 />
    <glyph glyph-name="uni00B9" unicode="&#xb9;" horiz-adv-x="1014" 
 />
    <glyph glyph-name="ordmasculine" unicode="&#xba;" horiz-adv-x="718" 
 />
    <glyph glyph-name="guillemotright" unicode="&#xbb;" horiz-adv-x="771" 
d="M525 718l-475 -278v51l329 227l-329 226v51zM726 718l-475 -278v51l329 227l-329 226v51z" />
    <glyph glyph-name="onequarter" unicode="&#xbc;" horiz-adv-x="1708" 
 />
    <glyph glyph-name="onehalf" unicode="&#xbd;" horiz-adv-x="1964" 
 />
    <glyph glyph-name="threequarters" unicode="&#xbe;" horiz-adv-x="1708" 
 />
    <glyph glyph-name="questiondown" unicode="&#xbf;" horiz-adv-x="1004" 
d="M563 1284c-17.333 -17.333 -38 -26 -62 -26c-24.667 0 -45.334 8.66699 -62.001 26c-17.333 17.333 -26 38 -26 62c0 24.667 8.66699 45.334 26 62.001c16.667 17.333 37.334 26 62.001 26c24 0 44.667 -8.66699 62 -26c17.333 -16.667 26 -37.334 26 -62.001
c0 -24 -8.66699 -44.667 -26 -62zM53 435c0 90 75.333 173.333 226 250c51.333 26 107.666 49.667 168.999 71v442h106v-524l-39 -8c-84.667 -25.333 -162 -58.666 -232 -99.999c-82.667 -48.667 -124 -92.334 -124 -131.001v-100c0 -60.667 37.667 -114.667 113 -162
c71.333 -44.667 147.666 -67 228.999 -67s157.333 22.333 228 67c75.333 47.333 113 101.333 113 162h107c0 -96.667 -51 -178.667 -153 -246c-89.333 -59.333 -187.666 -89 -294.999 -89s-205.666 29.667 -294.999 89c-102 67.333 -153 149.333 -153 246v100z" />
    <glyph glyph-name="Agrave" unicode="&#xc0;" horiz-adv-x="1280" 
d="M645 1434l-593 -1434h115l141 342h673l141 -342h116zM645 1155l292 -707h-585zM492 1658h101l81 -180h-51z" />
    <glyph glyph-name="Aacute" unicode="&#xc1;" horiz-adv-x="1287" 
d="M645 1434l-593 -1434h115l141 342h673l141 -342h116zM645 1155l292 -707h-585zM663 1478h-51l80 180h102z" />
    <glyph glyph-name="Acircumflex" unicode="&#xc2;" horiz-adv-x="1287" 
d="M1238 0h-116l-141 342h-673l-141 -342h-115l593 1434zM352 448h585l-292 707zM606 1465h-80l119 203l118 -203h-79l-39 67z" />
    <glyph glyph-name="Atilde" unicode="&#xc3;" horiz-adv-x="1287" 
d="M690 1478c-35.333 24.667 -53 54.334 -53 89.001c0 11.333 -9.33301 22.333 -28 33c-22 11.333 -48 17 -78 17s-55.667 -5.66699 -77 -17c-19.333 -10.667 -29 -21.667 -29 -33v-37h-75v37c0 35.333 17.333 65.333 52 90c35.333 24 78.333 36 129 36
c51.333 0 94.333 -12 129 -36c35.333 -24.667 53 -54.667 53 -90c0 -11.333 9.66699 -22 29 -32c21.333 -11.333 47 -17 77 -17s55.667 5.66699 77 17c19.333 10 29 20.667 29 32v38h76v-38c0 -34.667 -17.667 -64.334 -53 -89.001c-35.333 -24 -78.333 -36 -129 -36
s-93.667 12 -129 36zM645 1434l-593 -1434h115l141 342h673l141 -342h116zM645 1155l292 -707h-585z" />
    <glyph glyph-name="Adieresis" unicode="&#xc4;" horiz-adv-x="1282" 
d="M1238 0h-116l-141 342h-673l-141 -342h-115l593 1434zM352 448h585l-292 707zM544 1643c10.667 10 23 15 37 15c14.667 0 27 -5 37 -15c10.667 -10 16 -22.333 16 -37s-5.33301 -27 -16 -37c-10 -10 -22.333 -15 -37 -15c-14 0 -26.333 5 -37 15
c-10 10 -15 22.333 -15 37s5 27 15 37zM670 1643c10.667 10 23 15 37 15c14.667 0 27 -5 37 -15c10.667 -10 16 -22.333 16 -37s-5.33301 -27 -16 -37c-10 -10 -22.333 -15 -37 -15c-14 0 -26.333 5 -37 15c-10 10 -15 22.333 -15 37s5 27 15 37z" />
    <glyph glyph-name="Aring" unicode="&#xc5;" horiz-adv-x="1341" 
d="M975 464l-303 734l-304 -734h607zM672 1630c-41.333 0 -62 -20.667 -62 -62s20.667 -62 62 -62c40.667 0 61 20.667 61 62s-20.333 62 -61 62zM1286 0h-118.999l-147 354h-697l-146 -354h-120l579 1400c-91.333 19.333 -137 75.333 -137 168c0 47.333 17 88 51 122
c33.333 33.333 74 50 122 50c47.333 0 87.666 -16.667 120.999 -50c34 -34 51 -74.667 51 -122c0 -92.667 -45.333 -148.667 -136 -168z" />
    <glyph glyph-name="AE" unicode="&#xc6;" horiz-adv-x="1605" 
d="M1546 1434v-106h-799v-558h413v-106h-413v-557h799v-107h-905v342h-336l-142 -342h-115l593 1434h905zM348 448h293v708z" />
    <glyph glyph-name="Ccedilla" unicode="&#xc7;" horiz-adv-x="2150" 
d="M64 1528c-10.667 10.667 -13.999 25 -9.99902 43c3.33301 18 13 35 29 51s33 25.667 51 29c18 4 32.333 0.666992 43 -10c-10.667 10.667 -14 25 -10 43c3.33301 18 13 35 29 51s33 26 51 30c18.667 3.33301 33 -0.333984 43 -11.001l60 -59
c10.667 -10.667 14 -25 10 -43c-2.66699 -15.333 -10 -29.666 -22 -42.999l210 -211l-128 -128l-210 210c-14 -12 -28.333 -19.333 -43 -22c-18.667 -4 -33.334 -0.666992 -44.001 10zM2069 -138c-15.333 -16 -32.332 -25.667 -50.999 -29c-18 -4 -32.333 -0.666992 -43 10
c10.667 -10.667 14 -25 10 -43c-3.33301 -18 -13 -35 -29 -51s-33 -26 -51 -30c-18 -3.33301 -32.333 0.333984 -43 11.001l-60 59c-10.667 10.667 -14 25 -10 43c3.33301 15.333 10.666 29.666 21.999 42.999l-210 211l128 128l211 -210c13.333 12 27.666 19.333 42.999 22
c18 4 32.333 0.666992 43 -10l59 -60c10.667 -10.667 14.334 -25 11.001 -43c-4 -18 -14 -35 -30 -51zM548.002 86l-210.001 -211c12 -13.333 19.333 -27.666 22 -42.999c4 -18 0.666992 -32.333 -10 -43l-60 -59c-10 -10.667 -24.333 -14.334 -43 -11.001
c-18 4 -35 14 -51 30s-25.667 33 -29 51c-4 18 -0.666992 32.333 10 43c-10.667 -10.667 -25 -14 -43 -10c-18 3.33301 -35 13 -51 29s-25.667 33 -29 51c-4 18 -0.666992 32.333 10 43l59 60c10.667 10.667 25.334 14 44.001 10c14.667 -2.66699 29 -10 43 -22l210 210z
M1604 1398l209.997 211c-11.333 13.333 -18.666 27.666 -21.999 42.999c-4 18 -0.666992 32.333 10 43l60 59c10.667 10.667 25 14.334 43 11.001c18 -4 35 -14 51 -30s25.667 -33 29 -51c4 -18 0.666992 -32.333 -10 -43c10.667 10.667 25 14 43 10
c18.667 -3.33301 35.667 -13 51.001 -29c16 -16 26 -33 30 -51c3.33301 -18 -0.333984 -32.333 -11 -43l-59 -60c-10.667 -10.667 -25 -14 -43 -10c-15.333 2.66699 -29.666 10 -42.999 22l-211 -210zM1473 739c0 -28 -14.333 -51.667 -43 -71
c-28.667 -18.667 -64 -28 -106 -28c-41.333 0 -76.333 9.33301 -105 28c-28.667 19.333 -43 43 -43 71v156c0 27.333 14.333 50.666 43 69.999c28.667 18.667 63.667 28 105 28c42 0 77.333 -9.33301 106 -28c28.667 -19.333 43 -42.666 43 -69.999v-156zM1434 209
c0 -13.333 -16.333 -25.333 -49 -36v178c32.667 -10 49 -21.667 49 -35v-107zM1342 163c-9.33301 -2 -13.333 -3 -12 -3c-18 -3.33301 -38 -6.33301 -60 -9v223c22 -2.66699 42 -6 60 -10l12 -2v-199zM1227 147c-23.333 -2 -47.333 -3.66699 -72 -5v241
c24.667 -1.33301 48.667 -3 72 -5v-231zM1076 462c-22.667 0 -41.667 5 -57 15s-23 22.667 -23 38v84c0 14.667 7.66699 27.334 23 38.001c15.333 10 34.333 15 57 15s41.667 -5 57 -15c15.333 -10.667 23 -23.334 23 -38.001v-84c0 -15.333 -7.66699 -28 -23 -38
s-34.333 -15 -57 -15zM1112 141h-35h-37v243h37h35v-243zM996.998 142c-24.667 1.33301 -48.667 3 -72 5v231c23.333 2 47.333 3.66699 72 5v-241zM881.998 151c-21.333 2.66699 -41.333 5.66699 -60 9c0.666992 0 -3 1 -11 3v199c8 1.33301 11.667 2 11 2
c18.667 4 38.667 7.33301 60 10v-223zM767.998 173c-32.667 10.667 -49 22.667 -49 36v107c0 13.333 16.333 25 49 35v-178zM679.998 895c0 27.333 14.333 50.666 43 69.999c28.667 18.667 63.667 28 105 28c42 0 77.333 -9.33301 106 -28
c28.667 -19.333 43 -42.666 43 -69.999v-156c0 -28 -14.333 -51.667 -43 -71c-28.667 -18.667 -64 -28 -106 -28c-41.333 0 -76.333 9.33301 -105 28c-28.667 19.333 -43 43 -43 71v156zM1639 1204c0 104.667 -54.333 192.667 -163 264
c-108.667 72.667 -241.667 109 -399 109c-158.667 0 -292 -36.333 -400 -109c-108.667 -71.333 -163 -159.333 -163 -264v-592c0 -80.667 32 -151.667 96 -213v-183c0 -86.667 45 -160 135 -220c90 -59.333 200.667 -89 332 -89c130 0 240 29.667 330 89
c90 60 135 133.333 135 220v183c64.667 61.333 97 132.333 97 213v592z" />
    <glyph glyph-name="Egrave" unicode="&#xc8;" 
d="M50 1434v-1434h905v106h-799v558h414v106h-414v558h799v106h-905zM379 1658h101l81 -180h-51z" />
    <glyph glyph-name="Eacute" unicode="&#xc9;" 
d="M50 1434v-1434h905v106h-799v558h414v106h-414v558h799v106h-905zM543 1478h-51l80 180h102z" />
    <glyph glyph-name="Ecircumflex" unicode="&#xca;" 
d="M955 1434v-106h-799v-558h414v-106h-414v-558h799v-106h-905v1434h905zM481 1465h-80l119 203l118 -203h-79l-39 67z" />
    <glyph glyph-name="Edieresis" unicode="&#xcb;" 
d="M955 1434v-106h-799v-558h414v-106h-414v-558h799v-106h-905v1434h905zM424 1643c10.667 10 23 15 37 15c14.667 0 27 -5 37 -15c10.667 -10 16 -22.333 16 -37s-5.33301 -27 -16 -37c-10 -10 -22.333 -15 -37 -15c-14 0 -26.333 5 -37 15c-10 10 -15 22.333 -15 37
s5 27 15 37zM550 1643c10.667 10 23 15 37 15c14.667 0 27 -5 37 -15c10.667 -10 16 -22.333 16 -37s-5.33301 -27 -16 -37c-10 -10 -22.333 -15 -37 -15c-14 0 -26.333 5 -37 15c-10 10 -15 22.333 -15 37s5 27 15 37z" />
    <glyph glyph-name="Igrave" unicode="&#xcc;" horiz-adv-x="198" 
d="M50 0h106v1434h-106v-1434zM-53 1658h101l81 -180h-51z" />
    <glyph glyph-name="Iacute" unicode="&#xcd;" horiz-adv-x="198" 
d="M50 0h106v1434h-106v-1434zM126 1478h-51l80 180h102z" />
    <glyph glyph-name="Icircumflex" unicode="&#xce;" horiz-adv-x="198" 
d="M50 1434h106v-1434h-106v1434zM67 1465h-79l119 203l118 -203h-79l-39 67z" />
    <glyph glyph-name="Idieresis" unicode="&#xcf;" horiz-adv-x="198" 
d="M50 1434h106v-1434h-106v1434zM7 1643c10.667 10 23 15 37 15c14.667 0 27 -5 37 -15c10.667 -10 16 -22.333 16 -37s-5.33301 -27 -16 -37c-10 -10 -22.333 -15 -37 -15c-14 0 -26.333 5 -37 15c-10 10 -15 22.333 -15 37s5 27 15 37zM133 1643c10.667 10 23 15 37 15
c14.667 0 27 -5 37 -15c10.667 -10 16 -22.333 16 -37s-5.33301 -27 -16 -37c-10 -10 -22.333 -15 -37 -15c-14 0 -26.333 5 -37 15c-10 10 -15 22.333 -15 37s5 27 15 37z" />
    <glyph glyph-name="Eth" unicode="&#xd0;" horiz-adv-x="1139" 
d="M981 1049c0 76.667 -27.333 142.332 -82 196.999c-54 54.667 -119.667 82 -197 82h-413v-558h216v-106h-216v-558h413c77.333 0 143 27.333 197 82c54.667 54.667 82 120.334 82 197.001v664zM702 1434c106.667 0 197.334 -37.667 272.001 -113
c75.333 -75.333 113 -166 113 -272v-664c0 -106 -37.667 -196.667 -113 -272c-74.667 -75.333 -165.334 -113 -272.001 -113h-519v664h-132v106h132v664h519z" />
    <glyph glyph-name="Ntilde" unicode="&#xd1;" 
d="M847 1435v-1218l-692 1218h-107v-1435h107v1218l692 -1218h106v1435h-106zM506 1478c-35.333 24.667 -53 54.334 -53 89.001c0 11.333 -9.33301 22.333 -28 33c-22 11.333 -48 17 -78 17s-55.667 -5.66699 -77 -17c-19.333 -10.667 -29 -21.667 -29 -33v-37h-75v37
c0 35.333 17.333 65.333 52 90c35.333 24 78.333 36 129 36c51.333 0 94.333 -12 129 -36c35.333 -24.667 53 -54.667 53 -90c0 -11.333 9.66699 -22 29 -32c21.333 -11.333 47 -17 77 -17s55.667 5.66699 77 17c19.333 10 29 20.667 29 32v38h76v-38
c0 -34.667 -17.667 -64.334 -53 -89.001c-35.333 -24 -78.333 -36 -129 -36s-93.667 12 -129 36z" />
    <glyph glyph-name="Ograve" unicode="&#xd2;" 
d="M272 1261c-75.333 -47.333 -113.001 -101.333 -113.001 -162v-764c0 -62 37.333 -116.333 112 -163c70 -44 146.667 -66 230 -66c85.333 0 162.333 21.333 231 64c73.333 45.333 110 100.333 110 165v764c0 60.667 -37.667 114.667 -113 162
c-70.667 44.667 -146.667 67 -228 67s-157.666 -22.333 -228.999 -67zM196.999 93c-96 66.667 -143.998 147.333 -143.998 242v764c0 96.667 51 178.667 153 246c89.333 59.333 187.666 89 294.999 89s205.666 -29.667 294.999 -89c102 -67.333 153 -149.333 153 -246v-764
c0 -100.667 -51 -184 -153 -250c-88 -56.667 -186.333 -85 -295 -85c-112 0 -213.333 31 -304 93zM350.001 1658h101l81 -180h-51z" />
    <glyph glyph-name="Oacute" unicode="&#xd3;" horiz-adv-x="990" 
d="M272 1261c-75.333 -47.333 -113.001 -101.333 -113.001 -162v-764c0 -62 37.333 -116.333 112 -163c70 -44 146.667 -66 230 -66c85.333 0 162.333 21.333 231 64c73.333 45.333 110 100.333 110 165v764c0 60.667 -37.667 114.667 -113 162
c-70.667 44.667 -146.667 67 -228 67s-157.666 -22.333 -228.999 -67zM196.999 93c-96 66.667 -143.998 147.333 -143.998 242v764c0 96.667 51 178.667 153 246c89.333 59.333 187.666 89 294.999 89s205.666 -29.667 294.999 -89c102 -67.333 153 -149.333 153 -246v-764
c0 -100.667 -51 -184 -153 -250c-88 -56.667 -186.333 -85 -295 -85c-112 0 -213.333 31 -304 93zM529.001 1478h-51l80 180h102z" />
    <glyph glyph-name="Ocircumflex" unicode="&#xd4;" horiz-adv-x="990" 
d="M272 1261c-75.333 -47.333 -113.001 -101.333 -113.001 -162v-764c0 -62 37.333 -116.333 112 -163c70 -44 146.667 -66 230 -66c85.333 0 162.333 21.333 231 64c73.333 45.333 110 100.333 110 165v764c0 60.667 -37.667 114.667 -113 162
c-70.667 44.667 -146.667 67 -228 67s-157.666 -22.333 -228.999 -67zM196.999 93c-96 66.667 -143.998 147.333 -143.998 242v764c0 96.667 51 178.667 153 246c89.333 59.333 187.666 89 294.999 89s205.666 -29.667 294.999 -89c102 -67.333 153 -149.333 153 -246v-764
c0 -100.667 -51 -184 -153 -250c-88 -56.667 -186.333 -85 -295 -85c-112 0 -213.333 31 -304 93zM464.001 1465h-80l119 203l118 -203h-79l-39 67z" />
    <glyph glyph-name="Otilde" unicode="&#xd5;" 
d="M272 1261c-75.333 -47.333 -113.001 -101.333 -113.001 -162v-764c0 -62 37.333 -116.333 112 -163c70 -44 146.667 -66 230 -66c85.333 0 162.333 21.333 231 64c73.333 45.333 110 100.333 110 165v764c0 60.667 -37.667 114.667 -113 162
c-70.667 44.667 -146.667 67 -228 67s-157.666 -22.333 -228.999 -67zM196.999 93c-96 66.667 -143.998 147.333 -143.998 242v764c0 96.667 51 178.667 153 246c89.333 59.333 187.666 89 294.999 89s205.666 -29.667 294.999 -89c102 -67.333 153 -149.333 153 -246v-764
c0 -100.667 -51 -184 -153 -250c-88 -56.667 -186.333 -85 -295 -85c-112 0 -213.333 31 -304 93zM555.001 1478c-35.333 24.667 -53 54.334 -53 89.001c0 11.333 -9.33301 22.333 -28 33c-22 11.333 -48 17 -78 17s-55.667 -5.66699 -77 -17
c-19.333 -10.667 -29 -21.667 -29 -33v-37h-75v37c0 35.333 17.333 65.333 52 90c35.333 24 78.333 36 129 36c51.333 0 94.333 -12 129 -36c35.333 -24.667 53 -54.667 53 -90c0 -11.333 9.66699 -22 29 -32c21.333 -11.333 47 -17 77 -17s55.667 5.66699 77 17
c19.333 10 29 20.667 29 32v38h76v-38c0 -34.667 -17.667 -64.334 -53 -89.001c-35.333 -24 -78.333 -36 -129 -36s-93.667 12 -129 36z" />
    <glyph glyph-name="Odieresis" unicode="&#xd6;" horiz-adv-x="990" 
d="M272 1261c-75.333 -47.333 -113.001 -101.333 -113.001 -162v-764c0 -62 37.333 -116.333 112 -163c70 -44 146.667 -66 230 -66c85.333 0 162.333 21.333 231 64c73.333 45.333 110 100.333 110 165v764c0 60.667 -37.667 114.667 -113 162
c-70.667 44.667 -146.667 67 -228 67s-157.666 -22.333 -228.999 -67zM196.999 93c-96 66.667 -143.998 147.333 -143.998 242v764c0 96.667 51 178.667 153 246c89.333 59.333 187.666 89 294.999 89s205.666 -29.667 294.999 -89c102 -67.333 153 -149.333 153 -246v-764
c0 -100.667 -51 -184 -153 -250c-88 -56.667 -186.333 -85 -295 -85c-112 0 -213.333 31 -304 93zM410.001 1643c10.667 10 23 15 37 15c14.667 0 27 -5 37 -15c10.667 -10 16 -22.333 16 -37s-5.33301 -27 -16 -37c-10 -10 -22.333 -15 -37 -15c-14 0 -26.333 5 -37 15
c-10 10 -15 22.333 -15 37s5 27 15 37zM536.001 1643c10.667 10 23 15 37 15c14.667 0 27 -5 37 -15c10.667 -10 16 -22.333 16 -37s-5.33301 -27 -16 -37c-10 -10 -22.333 -15 -37 -15c-14 0 -26.333 5 -37 15c-10 10 -15 22.333 -15 37s5 27 15 37z" />
    <glyph glyph-name="multiply" unicode="&#xd7;" horiz-adv-x="552" 
d="M154 915l123 -123l123 123l75 -75l-123 -123l123 -123l-75 -75l-123 123l-123 -123l-75 75l123 123l-123 123z" />
    <glyph glyph-name="Oslash" unicode="&#xd8;" horiz-adv-x="1563" 
d="M381 233c116 -98 249.333 -146.999 400 -146.999c172 0 318.667 61 440 183c121.333 121.333 182 267.666 182 438.999c0 151.333 -48.667 285 -146 401zM342 1148c-122 -121.333 -183.001 -268 -183.001 -440c0 -150.667 49 -284 147 -400l876 876
c-116 97.333 -249.667 146 -401 146c-171.333 0 -317.666 -60.667 -438.999 -182zM1333 1184c118 -136.667 176.999 -295.333 176.999 -476c0 -200.667 -71.333 -372 -214 -514c-142 -142.667 -313.667 -214 -515 -214c-180 0 -338.333 59 -475 177l-112 -112l-76 76
l112 112c-118 136.667 -177 295 -177 475c0 201.333 71.333 373 214 515c142 142.667 313.333 214 514 214c180.667 0 339.334 -59 476.001 -177l112 112l76 -76z" />
    <glyph glyph-name="Ugrave" unicode="&#xd9;" horiz-adv-x="983" 
d="M194 93c-96 66.667 -144 146.999 -144 240.999v1100h106v-1100c0 -62 37 -116 111 -162c70 -44 146.333 -66 229 -66c85.333 0 162.333 21.333 231 64c73.333 44.667 110 99.334 110 164.001v1100h106v-1100c0 -100.667 -51 -183.667 -153 -249
c-87.333 -56.667 -185.333 -85 -294 -85c-111.333 0 -212 31 -302 93zM350 1658h101l81 -180h-51z" />
    <glyph glyph-name="Uacute" unicode="&#xda;" horiz-adv-x="983" 
d="M194 93c-96 66.667 -144 146.999 -144 240.999v1100h106v-1100c0 -62 37 -116 111 -162c70 -44 146.333 -66 229 -66c85.333 0 162.333 21.333 231 64c73.333 44.667 110 99.334 110 164.001v1100h106v-1100c0 -100.667 -51 -183.667 -153 -249
c-87.333 -56.667 -185.333 -85 -294 -85c-111.333 0 -212 31 -302 93zM529 1478h-51l80 180h102z" />
    <glyph glyph-name="Ucircumflex" unicode="&#xdb;" horiz-adv-x="1501" 
d="M194 93c-96 66.667 -144 146.999 -144 240.999v1100h106v-1100c0 -62 37 -116 111 -162c70 -44 146.333 -66 229 -66c85.333 0 162.333 21.333 231 64c73.333 44.667 110 99.334 110 164.001v1100h106v-1100c0 -100.667 -51 -183.667 -153 -249
c-87.333 -56.667 -185.333 -85 -294 -85c-111.333 0 -212 31 -302 93zM464 1465h-80l119 203l118 -203h-79l-39 67z" />
    <glyph glyph-name="Udieresis" unicode="&#xdc;" horiz-adv-x="1501" 
d="M194 93c-96 66.667 -144 146.999 -144 240.999v1100h106v-1100c0 -62 37 -116 111 -162c70 -44 146.333 -66 229 -66c85.333 0 162.333 21.333 231 64c73.333 44.667 110 99.334 110 164.001v1100h106v-1100c0 -100.667 -51 -183.667 -153 -249
c-87.333 -56.667 -185.333 -85 -294 -85c-111.333 0 -212 31 -302 93zM410 1643c10.667 10 23 15 37 15c14.667 0 27 -5 37 -15c10.667 -10 16 -22.333 16 -37s-5.33301 -27 -16 -37c-10 -10 -22.333 -15 -37 -15c-14 0 -26.333 5 -37 15c-10 10 -15 22.333 -15 37
s5 27 15 37zM536 1643c10.667 10 23 15 37 15c14.667 0 27 -5 37 -15c10.667 -10 16 -22.333 16 -37s-5.33301 -27 -16 -37c-10 -10 -22.333 -15 -37 -15c-14 0 -26.333 5 -37 15c-10 10 -15 22.333 -15 37s5 27 15 37z" />
    <glyph glyph-name="Yacute" unicode="&#xdd;" horiz-adv-x="1089" 
d="M908 1435l-369 -612l-368 612h-123l439 -730v-705h106v700l438 735h-123zM586 1478h-51l80 180h102z" />
    <glyph glyph-name="Thorn" unicode="&#xde;" horiz-adv-x="898" 
d="M735 925c0 38.667 -27 73.667 -81 105c-56.667 32.667 -125.667 49 -207 49h-287v-723h287c81.333 0 150.333 16.333 207 49c54 31.333 81 66.333 81 105v415zM447 1186c110.667 0 204 -25.333 280 -76c76 -50 114 -111.667 114 -185v-415c0 -73.333 -38 -135 -114 -185
c-76 -50.667 -169.333 -76 -280 -76h-287v-249h-107v1435h107v-249h287z" />
    <glyph glyph-name="germandbls" unicode="&#xdf;" horiz-adv-x="1251" 
 />
    <glyph glyph-name="agrave" unicode="&#xe0;" horiz-adv-x="891" 
d="M732 261c0 -38.667 -26.667 -73.668 -80 -105.001c-56.667 -33.333 -125.667 -50 -207 -50s-150.333 16.667 -207 50c-54 31.333 -81 66.333 -81 105s27 73.334 81 104.001c56.667 33.333 125.667 50 207 50h287v-154zM165 860.999
c-76 -50.667 -114.001 -112.333 -114.001 -185v-54h106v54c0 38.667 27 73.334 81 104.001c56.667 33.333 125.667 50 207 50s150.333 -16.667 207 -50c53.333 -30.667 80 -65.334 80 -104.001v-155h-287c-110.667 0 -204 -25 -280 -75
c-76 -50.667 -114 -112.334 -114 -185.001c0 -73.333 38 -135 114 -185c76 -50.667 169.333 -76 280 -76c114.667 0 210.334 27 287.001 81v-81h107v676c0 72.667 -38 134.334 -114 185.001c-76 50 -169.333 75 -280 75s-204 -25 -280 -75zM294.999 1249h101l81 -180h-51z
" />
    <glyph glyph-name="aacute" unicode="&#xe1;" horiz-adv-x="891" 
d="M732 261c0 -38.667 -26.667 -73.668 -80 -105.001c-56.667 -33.333 -125.667 -50 -207 -50s-150.333 16.667 -207 50c-54 31.333 -81 66.333 -81 105s27 73.334 81 104.001c56.667 33.333 125.667 50 207 50h287v-154zM165 860.999
c-76 -50.667 -114.001 -112.333 -114.001 -185v-54h106v54c0 38.667 27 73.334 81 104.001c56.667 33.333 125.667 50 207 50s150.333 -16.667 207 -50c53.333 -30.667 80 -65.334 80 -104.001v-155h-287c-110.667 0 -204 -25 -280 -75
c-76 -50.667 -114 -112.334 -114 -185.001c0 -73.333 38 -135 114 -185c76 -50.667 169.333 -76 280 -76c114.667 0 210.334 27 287.001 81v-81h107v676c0 72.667 -38 134.334 -114 185.001c-76 50 -169.333 75 -280 75s-204 -25 -280 -75zM472.999 1069h-51l80 180h102z
" />
    <glyph glyph-name="acircumflex" unicode="&#xe2;" horiz-adv-x="884" 
d="M732 415l-287 0.000976562c-81.333 0 -150.333 -16.667 -207 -50c-54 -30.667 -81 -65.334 -81 -104.001s27 -73.667 81 -105c56.667 -33.333 125.667 -50 207 -50s150.333 16.667 207 50c53.333 31.333 80 66.333 80 105v154zM165 861.001
c76 50 169.334 74.999 280.001 74.999s204 -25 280 -75c76 -50.667 114 -112.334 114 -185.001v-676h-107v81c-76.667 -54 -172.334 -81 -287.001 -81c-110.667 0 -204 25.333 -280 76c-76 50 -114 111.667 -114 185c0 72.667 38 134.334 114 185.001
c76 50 169.333 75 280 75h287v155c0 38.667 -26.667 73.334 -80 104.001c-56.667 33.333 -125.667 50 -207 50s-150.333 -16.667 -207 -50c-54 -30.667 -81 -65.334 -81 -104.001v-54h-106v54c0 72.667 38 134.334 114 185.001zM408.001 1047h-80l119 202l118 -202h-79
l-39 67z" />
    <glyph glyph-name="atilde" unicode="&#xe3;" horiz-adv-x="898" 
d="M732 261c0 -38.667 -26.667 -73.668 -80 -105.001c-56.667 -33.333 -125.667 -50 -207 -50s-150.333 16.667 -207 50c-54 31.333 -81 66.333 -81 105s27 73.334 81 104.001c56.667 33.333 125.667 50 207 50h287v-154zM165 860.999
c-76 -50.667 -114.001 -112.333 -114.001 -185v-54h106v54c0 38.667 27 73.334 81 104.001c56.667 33.333 125.667 50 207 50s150.333 -16.667 207 -50c53.333 -30.667 80 -65.334 80 -104.001v-155h-287c-110.667 0 -204 -25 -280 -75
c-76 -50.667 -114 -112.334 -114 -185.001c0 -73.333 38 -135 114 -185c76 -50.667 169.333 -76 280 -76c114.667 0 210.334 27 287.001 81v-81h107v676c0 72.667 -38 134.334 -114 185.001c-76 50 -169.333 75 -280 75s-204 -25 -280 -75zM504.999 1035
c-35.333 24 -53 53.667 -53 89c0 11.333 -9.33301 22 -28 32c-22 12 -48 18 -78 18s-55.667 -6 -77 -18c-19.333 -10 -29 -20.667 -29 -32v-38h-75v38c0 35.333 17.333 65 52 89c35.333 24 78.333 36 129 36c51.333 0 94.333 -12 129 -36c35.333 -24 53 -53.667 53 -89
c0 -11.333 9.66699 -22.333 29 -33c21.333 -11.333 47 -17 77 -17s55.667 5.66699 77 17c19.333 10.667 29 21.667 29 33v38h76v-38c0 -35.333 -17.667 -65 -53 -89c-35.333 -24.667 -78.333 -37 -129 -37s-93.667 12.333 -129 37z" />
    <glyph glyph-name="adieresis" unicode="&#xe4;" horiz-adv-x="891" 
d="M732 415l-287 0.000976562c-81.333 0 -150.333 -16.667 -207 -50c-54 -30.667 -81 -65.334 -81 -104.001s27 -73.667 81 -105c56.667 -33.333 125.667 -50 207 -50s150.333 16.667 207 50c53.333 31.333 80 66.333 80 105v154zM165 861.001
c76 50 169.334 74.999 280.001 74.999s204 -25 280 -75c76 -50.667 114 -112.334 114 -185.001v-676h-107v81c-76.667 -54 -172.334 -81 -287.001 -81c-110.667 0 -204 25.333 -280 76c-76 50 -114 111.667 -114 185c0 72.667 38 134.334 114 185.001
c76 50 169.333 75 280 75h287v155c0 38.667 -26.667 73.334 -80 104.001c-56.667 33.333 -125.667 50 -207 50s-150.333 -16.667 -207 -50c-54 -30.667 -81 -65.334 -81 -104.001v-54h-106v54c0 72.667 38 134.334 114 185.001zM353.001 1234c10.667 10 23 15 37 15
c14.667 0 27 -5 37 -15c10.667 -10 16 -22.333 16 -37s-5.33301 -27 -16 -37c-10 -10 -22.333 -15 -37 -15c-14 0 -26.333 5 -37 15c-10 10 -15 22.333 -15 37s5 27 15 37zM479.001 1234c10.667 10 23 15 37 15c14.667 0 27 -5 37 -15c10.667 -10 16 -22.333 16 -37
s-5.33301 -27 -16 -37c-10 -10 -22.333 -15 -37 -15c-14 0 -26.333 5 -37 15c-10 10 -15 22.333 -15 37s5 27 15 37z" />
    <glyph glyph-name="aring" unicode="&#xe5;" horiz-adv-x="884" 
d="M732 261c0 -38.667 -26.667 -73.668 -80 -105.001c-56.667 -33.333 -125.667 -50 -207 -50s-150.333 16.667 -207 50c-54 31.333 -81 66.333 -81 105s27 73.334 81 104.001c56.667 33.333 125.667 50 207 50h287v-154zM165 860.999
c-76 -50.667 -114.001 -112.333 -114.001 -185v-54h106v54c0 38.667 27 73.334 81 104.001c56.667 33.333 125.667 50 207 50s150.333 -16.667 207 -50c53.333 -30.667 80 -65.334 80 -104.001v-155h-287c-110.667 0 -204 -25 -280 -75
c-76 -50.667 -114 -112.334 -114 -185.001c0 -73.333 38 -135 114 -185c76 -50.667 169.333 -76 280 -76c114.667 0 210.334 27 287.001 81v-81h107v676c0 72.667 -38 134.334 -114 185.001c-76 50 -169.333 75 -280 75s-204 -25 -280 -75zM403.999 1206
c-12 -12 -18 -26.667 -18 -44s6 -32 18 -44c12.667 -12 27.334 -18 44.001 -18c17.333 0 32 6 44 18s18 26.667 18 44s-6 32 -18 44s-26.667 18 -44 18c-16.667 0 -31.334 -6 -44.001 -18zM326.999 1040c-34 34 -51 74.667 -51 122s17 88 51 122
c33.333 33.333 73.666 50 120.999 50s88 -16.667 122 -50c33.333 -34 50 -74.667 50 -122s-16.667 -88 -50 -122c-34 -33.333 -74.667 -50 -122 -50s-87.666 16.667 -120.999 50z" />
    <glyph glyph-name="ae" unicode="&#xe6;" horiz-adv-x="1561" 
d="M731 415l-288 0.000976562c-81.333 0 -150.333 -16.667 -207 -50c-53.333 -30.667 -80 -65.334 -80 -104.001s26.667 -73.667 80 -105c56.667 -32.667 125.667 -49 207 -49s150.333 16.333 207 49c54 31.333 81 66.333 81 105v154zM837 522.001h574.999v154
c0 38.667 -26.667 73.334 -80 104.001c-57.333 33.333 -126.333 50 -207 50c-81.333 0 -150.666 -16.667 -207.999 -50c-53.333 -30.667 -80 -65.334 -80 -104.001v-154zM836.999 415.001l0.000976562 -154c0 -38.667 26.667 -73.667 80 -105
c57.333 -32.667 126.666 -49 207.999 -49c80.667 0 149.667 16.333 207 49c53.333 31.333 80 66.333 80 105v53h107v-53c0 -73.333 -38 -135 -114 -185c-76.667 -50.667 -170 -76 -280 -76c-152.667 0 -266.334 42.667 -341.001 128
c-74.667 -85.333 -188.334 -128 -341.001 -128c-110.667 0 -204 25.333 -280 76c-76 50 -114 111.667 -114 185s38 135 114 185c76 50.667 169.333 76 280 76h288v154c0 38.667 -27 73.334 -81 104.001c-56.667 33.333 -125.667 50 -207 50s-150.333 -16.667 -207 -50
c-53.333 -30.667 -80 -65.334 -80 -104.001v-53h-107v53c0 73.333 38 135 114 185c76 50.667 169.333 76 280 76c152.667 0 266.334 -42.667 341.001 -128c74.667 85.333 188.334 128 341.001 128c110 0 203.333 -25.333 280 -76c76 -50 114 -111.667 114 -185v-261h-682z
" />
    <glyph glyph-name="ccedilla" unicode="&#xe7;" horiz-adv-x="905" 
 />
    <glyph glyph-name="egrave" unicode="&#xe8;" horiz-adv-x="877" 
d="M156 675c0 38.667 27 73.667 81 105c56.667 32.667 125.667 49 207 49c80.667 0 149.667 -16.333 207 -49c53.333 -31.333 80 -66.333 80 -105v-154h-575v154zM837 415v260c0 73.333 -38 135 -114 185c-76 50.667 -169 76 -279 76c-110.667 0 -204 -25.333 -280 -76
c-76 -50 -114 -111.667 -114 -185v-414c0 -73.333 38 -135.333 114 -186c76 -50 169.333 -75 280 -75c110 0 203 25 279 75c76 50.667 114 112.667 114 186v53h-106v-53c0 -38.667 -26.667 -73.667 -80 -105c-57.333 -33.333 -126.333 -50 -207 -50
c-81.333 0 -150.333 16.667 -207 50c-54 31.333 -81 66.333 -81 105v154h681zM295 1249h101l81 -180h-51z" />
    <glyph glyph-name="eacute" unicode="&#xe9;" horiz-adv-x="891" 
d="M156 675c0 38.667 27 73.667 81 105c56.667 32.667 125.667 49 207 49c80.667 0 149.667 -16.333 207 -49c53.333 -31.333 80 -66.333 80 -105v-154h-575v154zM837 415v260c0 73.333 -38 135 -114 185c-76 50.667 -169 76 -279 76c-110.667 0 -204 -25.333 -280 -76
c-76 -50 -114 -111.667 -114 -185v-414c0 -73.333 38 -135.333 114 -186c76 -50 169.333 -75 280 -75c110 0 203 25 279 75c76 50.667 114 112.667 114 186v53h-106v-53c0 -38.667 -26.667 -73.667 -80 -105c-57.333 -33.333 -126.333 -50 -207 -50
c-81.333 0 -150.333 16.667 -207 50c-54 31.333 -81 66.333 -81 105v154h681zM473 1069h-51l80 180h102z" />
    <glyph glyph-name="ecircumflex" unicode="&#xea;" horiz-adv-x="884" 
d="M156 521h575v154c0 38.667 -26.667 73.667 -80 105c-57.333 32.667 -126.333 49 -207 49c-81.333 0 -150.333 -16.333 -207 -49c-54 -31.333 -81 -66.333 -81 -105v-154zM156 415v-154c0 -38.667 27 -73.667 81 -105c56.667 -33.333 125.667 -50 207 -50
c80.667 0 149.667 16.667 207 50c53.333 31.333 80 66.333 80 105v53h106v-53c0 -73.333 -38 -135.333 -114 -186c-76 -50 -169 -75 -279 -75c-110.667 0 -204 25 -280 75c-76 50.667 -114 112.667 -114 186v414c0 73.333 38 135 114 185c76 50.667 169.333 76 280 76
c110 0 203 -25.333 279 -76c76 -50 114 -111.667 114 -185v-260h-681zM408 1047h-80l119 202l118 -202h-79l-39 67z" />
    <glyph glyph-name="edieresis" unicode="&#xeb;" horiz-adv-x="884" 
d="M156 521h575v154c0 38.667 -26.667 73.667 -80 105c-57.333 32.667 -126.333 49 -207 49c-81.333 0 -150.333 -16.333 -207 -49c-54 -31.333 -81 -66.333 -81 -105v-154zM156 415v-154c0 -38.667 27 -73.667 81 -105c56.667 -33.333 125.667 -50 207 -50
c80.667 0 149.667 16.667 207 50c53.333 31.333 80 66.333 80 105v53h106v-53c0 -73.333 -38 -135.333 -114 -186c-76 -50 -169 -75 -279 -75c-110.667 0 -204 25 -280 75c-76 50.667 -114 112.667 -114 186v414c0 73.333 38 135 114 185c76 50.667 169.333 76 280 76
c110 0 203 -25.333 279 -76c76 -50 114 -111.667 114 -185v-260h-681zM353 1234c10.667 10 23 15 37 15c14.667 0 27 -5 37 -15c10.667 -10 16 -22.333 16 -37s-5.33301 -27 -16 -37c-10 -10 -22.333 -15 -37 -15c-14 0 -26.333 5 -37 15c-10 10 -15 22.333 -15 37
s5 27 15 37zM479 1234c10.667 10 23 15 37 15c14.667 0 27 -5 37 -15c10.667 -10 16 -22.333 16 -37s-5.33301 -27 -16 -37c-10 -10 -22.333 -15 -37 -15c-14 0 -26.333 5 -37 15c-10 10 -15 22.333 -15 37s5 27 15 37z" />
    <glyph glyph-name="igrave" unicode="&#xec;" horiz-adv-x="198" 
d="M158 0h-106v922h106v-922zM-52 1249h101l81 -180h-51z" />
    <glyph glyph-name="iacute" unicode="&#xed;" horiz-adv-x="198" 
d="M158 0h-106v922h106v-922zM133 1069h-51l80 180h102z" />
    <glyph glyph-name="icircumflex" unicode="&#xee;" horiz-adv-x="198" 
d="M158 0h-106v922h106v-922zM67 1047h-79l119 202l118 -202h-79l-39 67z" />
    <glyph glyph-name="idieresis" unicode="&#xef;" horiz-adv-x="198" 
d="M158 0h-106v922h106v-922zM7 1234c10.667 10 23 15 37 15c14.667 0 27 -5 37 -15c10.667 -10 16 -22.333 16 -37s-5.33301 -27 -16 -37c-10 -10 -22.333 -15 -37 -15c-14 0 -26.333 5 -37 15c-10 10 -15 22.333 -15 37s5 27 15 37zM133 1234c10.667 10 23 15 37 15
c14.667 0 27 -5 37 -15c10.667 -10 16 -22.333 16 -37s-5.33301 -27 -16 -37c-10 -10 -22.333 -15 -37 -15c-14 0 -26.333 5 -37 15c-10 10 -15 22.333 -15 37s5 27 15 37z" />
    <glyph glyph-name="eth" unicode="&#xf0;" horiz-adv-x="1139" 
 />
    <glyph glyph-name="ntilde" unicode="&#xf1;" horiz-adv-x="891" 
d="M157 841v81h-106v-922h106v661c0 38.667 27 73.667 81 105c56.667 33.333 125.667 50 207 50c80.667 0 149.667 -16.667 207 -50c53.333 -31.333 80 -66.333 80 -105v-661h107v661c0 73.333 -38 135.333 -114 186c-76 50 -169.333 75 -280 75
c-114.667 0 -210.667 -27 -288 -81zM491 1035c-35.333 24 -53 53.667 -53 89c0 11.333 -9.33301 22 -28 32c-22 12 -48 18 -78 18s-55.667 -6 -77 -18c-19.333 -10 -29 -20.667 -29 -32v-38h-75v38c0 35.333 17.333 65 52 89c35.333 24 78.333 36 129 36
c51.333 0 94.333 -12 129 -36c35.333 -24 53 -53.667 53 -89c0 -11.333 9.66699 -22.333 29 -33c21.333 -11.333 47 -17 77 -17s55.667 5.66699 77 17c19.333 10.667 29 21.667 29 33v38h76v-38c0 -35.333 -17.667 -65 -53 -89c-35.333 -24.667 -78.333 -37 -129 -37
s-93.667 12.333 -129 37z" />
    <glyph glyph-name="ograve" unicode="&#xf2;" horiz-adv-x="877" 
d="M234 780c-54 -31.333 -81 -66.333 -81 -105v-414c0 -38.667 27 -73.667 81 -105c56.667 -33.333 125.667 -50 207 -50c80.667 0 149.667 16.667 207 50c53.333 31.333 80 66.333 80 105v414c0 38.667 -26.667 73.667 -80 105c-57.333 32.667 -126.333 49 -207 49
c-81.333 0 -150.333 -16.333 -207 -49zM161 75c-76 50.667 -114 112.667 -114 186v414c0 73.333 38 135 114 185c76 50.667 169.333 76 280 76c110 0 203 -25.333 279 -76c76 -50 114 -111.667 114 -185v-414c0 -73.333 -38 -135.333 -114 -186c-76 -50 -169 -75 -279 -75
c-110.667 0 -204 25 -280 75zM295 1249h101l81 -180h-51z" />
    <glyph glyph-name="oacute" unicode="&#xf3;" horiz-adv-x="877" 
d="M234 780c-54 -31.333 -81 -66.333 -81 -105v-414c0 -38.667 27 -73.667 81 -105c56.667 -33.333 125.667 -50 207 -50c80.667 0 149.667 16.667 207 50c53.333 31.333 80 66.333 80 105v414c0 38.667 -26.667 73.667 -80 105c-57.333 32.667 -126.333 49 -207 49
c-81.333 0 -150.333 -16.333 -207 -49zM161 75c-76 50.667 -114 112.667 -114 186v414c0 73.333 38 135 114 185c76 50.667 169.333 76 280 76c110 0 203 -25.333 279 -76c76 -50 114 -111.667 114 -185v-414c0 -73.333 -38 -135.333 -114 -186c-76 -50 -169 -75 -279 -75
c-110.667 0 -204 25 -280 75zM473 1069h-51l80 180h102z" />
    <glyph glyph-name="ocircumflex" unicode="&#xf4;" horiz-adv-x="884" 
d="M234 780c-54 -31.333 -81 -66.333 -81 -105v-414c0 -38.667 27 -73.667 81 -105c56.667 -33.333 125.667 -50 207 -50c80.667 0 149.667 16.667 207 50c53.333 31.333 80 66.333 80 105v414c0 38.667 -26.667 73.667 -80 105c-57.333 32.667 -126.333 49 -207 49
c-81.333 0 -150.333 -16.333 -207 -49zM161 75c-76 50.667 -114 112.667 -114 186v414c0 73.333 38 135 114 185c76 50.667 169.333 76 280 76c110 0 203 -25.333 279 -76c76 -50 114 -111.667 114 -185v-414c0 -73.333 -38 -135.333 -114 -186c-76 -50 -169 -75 -279 -75
c-110.667 0 -204 25 -280 75zM408 1047h-80l119 202l118 -202h-79l-39 67z" />
    <glyph glyph-name="otilde" unicode="&#xf5;" horiz-adv-x="884" 
d="M234 780c-54 -31.333 -81 -66.333 -81 -105v-414c0 -38.667 27 -73.667 81 -105c56.667 -33.333 125.667 -50 207 -50c80.667 0 149.667 16.667 207 50c53.333 31.333 80 66.333 80 105v414c0 38.667 -26.667 73.667 -80 105c-57.333 32.667 -126.333 49 -207 49
c-81.333 0 -150.333 -16.333 -207 -49zM161 75c-76 50.667 -114 112.667 -114 186v414c0 73.333 38 135 114 185c76 50.667 169.333 76 280 76c110 0 203 -25.333 279 -76c76 -50 114 -111.667 114 -185v-414c0 -73.333 -38 -135.333 -114 -186c-76 -50 -169 -75 -279 -75
c-110.667 0 -204 25 -280 75zM505 1035c-35.333 24 -53 53.667 -53 89c0 11.333 -9.33301 22 -28 32c-22 12 -48 18 -78 18s-55.667 -6 -77 -18c-19.333 -10 -29 -20.667 -29 -32v-38h-75v38c0 35.333 17.333 65 52 89c35.333 24 78.333 36 129 36
c51.333 0 94.333 -12 129 -36c35.333 -24 53 -53.667 53 -89c0 -11.333 9.66699 -22.333 29 -33c21.333 -11.333 47 -17 77 -17s55.667 5.66699 77 17c19.333 10.667 29 21.667 29 33v38h76v-38c0 -35.333 -17.667 -65 -53 -89c-35.333 -24.667 -78.333 -37 -129 -37
s-93.667 12.333 -129 37z" />
    <glyph glyph-name="odieresis" unicode="&#xf6;" horiz-adv-x="891" 
d="M234 780c-54 -31.333 -81 -66.333 -81 -105v-414c0 -38.667 27 -73.667 81 -105c56.667 -33.333 125.667 -50 207 -50c80.667 0 149.667 16.667 207 50c53.333 31.333 80 66.333 80 105v414c0 38.667 -26.667 73.667 -80 105c-57.333 32.667 -126.333 49 -207 49
c-81.333 0 -150.333 -16.333 -207 -49zM161 75c-76 50.667 -114 112.667 -114 186v414c0 73.333 38 135 114 185c76 50.667 169.333 76 280 76c110 0 203 -25.333 279 -76c76 -50 114 -111.667 114 -185v-414c0 -73.333 -38 -135.333 -114 -186c-76 -50 -169 -75 -279 -75
c-110.667 0 -204 25 -280 75zM353 1234c10.667 10 23 15 37 15c14.667 0 27 -5 37 -15c10.667 -10 16 -22.333 16 -37s-5.33301 -27 -16 -37c-10 -10 -22.333 -15 -37 -15c-14 0 -26.333 5 -37 15c-10 10 -15 22.333 -15 37s5 27 15 37zM479 1234c10.667 10 23 15 37 15
c14.667 0 27 -5 37 -15c10.667 -10 16 -22.333 16 -37s-5.33301 -27 -16 -37c-10 -10 -22.333 -15 -37 -15c-14 0 -26.333 5 -37 15c-10 10 -15 22.333 -15 37s5 27 15 37z" />
    <glyph glyph-name="divide" unicode="&#xf7;" horiz-adv-x="552" 
d="M504 770v-106h-454v106h454zM240 558c10 10.667 22.333 16 37 16s27 -5.33301 37 -16c10 -10 15 -22.333 15 -37c0 -14 -5 -26.333 -15 -37c-10 -10 -22.333 -15 -37 -15s-27 5 -37 15c-10 10.667 -15 23 -15 37c0 14.667 5 27 15 37zM240 951c10 10.667 22.333 16 37 16
s27 -5.33301 37 -16c10 -10 15 -22.333 15 -37c0 -14 -5 -26.333 -15 -37c-10 -10 -22.333 -15 -37 -15s-27 5 -37 15c-10 10.667 -15 23 -15 37c0 14.667 5 27 15 37z" />
    <glyph glyph-name="oslash" unicode="&#xf8;" horiz-adv-x="1030" 
d="M302 175c62.667 -46 132.334 -69 209.001 -69c97.333 0 180.666 34.667 249.999 104c68.667 68.667 103 151.667 103 249c0 77.333 -22.667 147 -68 209zM262 709c-69.333 -69.333 -104 -152.666 -104 -249.999c0 -76.667 23 -146.334 69 -209.001l493 494
c-62 45.333 -131.667 68 -209 68c-97.333 0 -180.333 -34.333 -249 -103zM871 744c66.667 -83.333 100 -178.333 100 -285c0 -126.667 -45 -234.667 -135 -324c-90 -90 -198.333 -135 -325 -135c-106 0 -200.667 33 -284 99l-69 -68l-75 75l68 69
c-66 83.333 -99 178 -99 284c0 126.667 45 235 135 325c89.333 90 197.333 135 324 135c106.667 0 201.667 -33 285 -99l69 68l75 -75z" />
    <glyph glyph-name="ugrave" unicode="&#xf9;" horiz-adv-x="898" 
d="M732 81l-0.000976562 -81h107v922h-107v-661c0 -38.667 -26.667 -73.667 -80 -105c-57.333 -33.333 -126.333 -50 -207 -50c-81.333 0 -150.333 16.667 -207 50c-54 31.333 -81 66.333 -81 105v661h-106v-661c0 -73.333 38 -135 114 -185c76 -50.667 169.333 -76 280 -76
c114.667 0 210.334 27 287.001 81zM294.999 1249h101l81 -180h-51z" />
    <glyph glyph-name="uacute" unicode="&#xfa;" horiz-adv-x="898" 
d="M732 81l-0.000976562 -81h107v922h-107v-661c0 -38.667 -26.667 -73.667 -80 -105c-57.333 -33.333 -126.333 -50 -207 -50c-81.333 0 -150.333 16.667 -207 50c-54 31.333 -81 66.333 -81 105v661h-106v-661c0 -73.333 38 -135 114 -185c76 -50.667 169.333 -76 280 -76
c114.667 0 210.334 27 287.001 81zM472.999 1069h-51l80 180h102z" />
    <glyph glyph-name="ucircumflex" unicode="&#xfb;" horiz-adv-x="912" 
d="M732 81c-76.667 -54 -172.333 -81 -287 -81c-110.667 -0 -204 25.333 -280 76c-76 50 -114 111.667 -114 185v661h106v-661c0 -38.667 27 -73.667 81 -105c56.667 -33.333 125.667 -50 207 -50c80.667 0 149.667 16.667 207 50c53.333 31.333 80 66.333 80 105v661h107
v-922h-107v81zM408.001 1047h-80l119 202l118 -202h-79l-39 67z" />
    <glyph glyph-name="udieresis" unicode="&#xfc;" horiz-adv-x="905" 
d="M732 81c-76.667 -54 -172.333 -81 -287 -81c-110.667 -0 -204 25.333 -280 76c-76 50 -114 111.667 -114 185v661h106v-661c0 -38.667 27 -73.667 81 -105c56.667 -33.333 125.667 -50 207 -50c80.667 0 149.667 16.667 207 50c53.333 31.333 80 66.333 80 105v661h107
v-922h-107v81zM353.001 1234c10.667 10 23 15 37 15c14.667 0 27 -5 37 -15c10.667 -10 16 -22.333 16 -37s-5.33301 -27 -16 -37c-10 -10 -22.333 -15 -37 -15c-14 0 -26.333 5 -37 15c-10 10 -15 22.333 -15 37s5 27 15 37zM479.001 1234c10.667 10 23 15 37 15
c14.667 0 27 -5 37 -15c10.667 -10 16 -22.333 16 -37s-5.33301 -27 -16 -37c-10 -10 -22.333 -15 -37 -15c-14 0 -26.333 5 -37 15c-10 10 -15 22.333 -15 37s5 27 15 37z" />
    <glyph glyph-name="yacute" unicode="&#xfd;" horiz-adv-x="868" 
d="M725 921l0.00195312 -669c0 -38.667 -26.667 -73.334 -80 -104.001c-56 -32.667 -124.333 -49 -205 -49c-80 0 -148.333 16.333 -205 49c-53.333 30.667 -80 65.334 -80 104.001v669h-105v-669c0 -72.667 37.667 -134 113 -184c75.333 -49.333 167.666 -74 276.999 -74
c114 0 209 26.667 285 80v-485c0 -38 -26.667 -72.333 -80 -103c-56 -33.333 -124.333 -50 -205 -50h-53v-105h53c109.333 0 201.666 25 276.999 75s113 111 113 183v1332h-105zM473.002 1069h-51l80 180h102z" />
    <glyph glyph-name="thorn" unicode="&#xfe;" horiz-adv-x="891" 
d="M734 924c0 38.667 -26.667 73.667 -80 105c-57.333 33.333 -126.333 50 -207 50c-81.333 0 -150.333 -16.667 -207 -50c-54 -31.333 -81 -66.333 -81 -105v-414c0 -38.667 27 -73.667 81 -105c56.667 -33.333 125.667 -50 207 -50c80.667 0 149.667 16.667 207 50
c53.333 31.333 80 66.333 80 105v414zM159 1104c77.333 54 173.333 81 288 81c110 0 203 -25.333 279 -76c76.667 -50 115 -111.667 115 -185v-414c0 -73.333 -38.333 -135 -115 -185c-76 -50.667 -169 -76 -279 -76c-114.667 0 -210.667 27 -288 81v-330h-106v1434h106
v-330z" />
    <glyph glyph-name="ydieresis" unicode="&#xff;" horiz-adv-x="868" 
d="M830 921l-0.00195312 -1332c0 -72 -37.667 -133 -113 -183s-167.666 -75 -276.999 -75h-53v105h53c80.667 0 149 16.667 205 50c53.333 30.667 80 65 80 103v485c-76 -53.333 -171 -80 -285 -80c-109.333 0 -201.666 24.667 -276.999 74
c-75.333 50 -113 111.333 -113 184v669h105v-669c0 -38.667 26.667 -73.334 80 -104.001c56.667 -32.667 125 -49 205 -49c80.667 0 149 16.333 205 49c53.333 30.667 80 65.334 80 104.001v669h105zM352.998 1234c10.667 10 23 15 37 15c14.667 0 27 -5 37 -15
c10.667 -10 16 -22.333 16 -37s-5.33301 -27 -16 -37c-10 -10 -22.333 -15 -37 -15c-14 0 -26.333 5 -37 15c-10 10 -15 22.333 -15 37s5 27 15 37zM478.998 1234c10.667 10 23 15 37 15c14.667 0 27 -5 37 -15c10.667 -10 16 -22.333 16 -37s-5.33301 -27 -16 -37
c-10 -10 -22.333 -15 -37 -15c-14 0 -26.333 5 -37 15c-10 10 -15 22.333 -15 37s5 27 15 37z" />
    <glyph glyph-name="dotlessi" unicode="&#x131;" horiz-adv-x="198" 
d="M158 0h-106v922h106v-922z" />
    <glyph glyph-name="circumflex" unicode="&#x2c6;" horiz-adv-x="1024" 
 />
    <glyph glyph-name="caron" unicode="&#x2c7;" horiz-adv-x="1024" 
 />
    <glyph glyph-name="uni02C9" unicode="&#x2c9;" horiz-adv-x="559" 
d="M504 1496v-106h-454v106h454z" />
    <glyph glyph-name="breve" unicode="&#x2d8;" horiz-adv-x="1024" 
 />
    <glyph glyph-name="dotaccent" unicode="&#x2d9;" horiz-adv-x="198" 
d="M68 1481c10.667 10 23 15 37 15c14.667 0 27 -5 37 -15c10.667 -10 16 -22.333 16 -37s-5.33301 -27 -16 -37c-10 -10 -22.333 -15 -37 -15c-14 0 -26.333 5 -37 15c-10 10 -15 22.333 -15 37s5 27 15 37z" />
    <glyph glyph-name="ring" unicode="&#x2da;" horiz-adv-x="453" 
d="M177 1368c-12 -12 -18 -26.667 -18 -44s6 -32 18 -44c12.667 -12 27.334 -18 44.001 -18c17.333 0 32 6 44 18s18 26.667 18 44s-6 32 -18 44s-26.667 18 -44 18c-16.667 0 -31.334 -6 -44.001 -18zM100 1202c-34 34 -51 74.667 -51 122s17 88 51 122
c33.333 33.333 73.666 50 120.999 50s88 -16.667 122 -50c33.333 -34 50 -74.667 50 -122s-16.667 -88 -50 -122c-34 -33.333 -74.667 -50 -122 -50s-87.666 16.667 -120.999 50z" />
    <glyph glyph-name="ogonek" unicode="&#x2db;" horiz-adv-x="1024" 
 />
    <glyph glyph-name="tilde" unicode="&#x2dc;" horiz-adv-x="764" 
d="M393 1282c-34.667 24 -52.001 53.667 -52.001 89c0 11.333 -9.66699 22 -29 32c-21.333 12 -47 18 -77 18s-56 -6 -78 -18c-18.667 -10 -28 -20.667 -28 -32v-38h-76v38c0 35.333 17.667 65 53 89c34.667 24 77.667 36 129 36c50.667 0 93.667 -12 129 -36
c34.667 -24 52 -53.667 52 -89c0 -11.333 9.66699 -22.333 29 -33c21.333 -11.333 47 -17 77 -17c30.667 0 56.667 5.66699 78 17c19.333 10.667 29 21.667 29 33v38h75v-38c0 -35.333 -17.333 -65 -52 -89c-35.333 -24.667 -78.666 -37 -129.999 -37
c-50.667 0 -93.667 12.333 -129 37z" />
    <glyph glyph-name="hungarumlaut" unicode="&#x2dd;" horiz-adv-x="325" 
d="M218 1316h-51v180h101zM109 1316h-51v180h101z" />
    <glyph glyph-name="endash" unicode="&#x2013;" horiz-adv-x="559" 
d="M504 770v-106h-454v106h454z" />
    <glyph glyph-name="emdash" unicode="&#x2014;" horiz-adv-x="566" 
d="M504 770v-106h-454v106h454z" />
    <glyph glyph-name="quoteleft" unicode="&#x2018;" horiz-adv-x="212" 
d="M109 1496h50v-180h-101z" />
    <glyph glyph-name="quoteright" unicode="&#x2019;" horiz-adv-x="212" 
d="M109 1316h-51v180h101z" />
    <glyph glyph-name="quotesinglbase" unicode="&#x201a;" horiz-adv-x="219" 
d="M109 1316h-51v180h101z" />
    <glyph glyph-name="quotedblleft" unicode="&#x201c;" horiz-adv-x="326" 
d="M109 1496h50v-180h-101zM218 1496h50v-180h-101z" />
    <glyph glyph-name="quotedblright" unicode="&#x201d;" horiz-adv-x="325" 
d="M218 1316h-51v180h101zM109 1316h-51v180h101z" />
    <glyph glyph-name="quotedblbase" unicode="&#x201e;" horiz-adv-x="339" 
d="M218 1316h-51v180h101zM109 1316h-51v180h101z" />
    <glyph glyph-name="dagger" unicode="&#x2020;" horiz-adv-x="2150" 
d="M64 1528c-10.667 10.667 -13.999 25 -9.99902 43c3.33301 18 13 35 29 51s33 25.667 51 29c18 4 32.333 0.666992 43 -10c-10.667 10.667 -14 25 -10 43c3.33301 18 13 35 29 51s33 26 51 30c18.667 3.33301 33 -0.333984 43 -11.001l60 -59
c10.667 -10.667 14 -25 10 -43c-2.66699 -15.333 -10 -29.666 -22 -42.999l210 -211l-128 -128l-210 210c-14 -12 -28.333 -19.333 -43 -22c-18.667 -4 -33.334 -0.666992 -44.001 10zM2069 -138c-15.333 -16 -32.332 -25.667 -50.999 -29c-18 -4 -32.333 -0.666992 -43 10
c10.667 -10.667 14 -25 10 -43c-3.33301 -18 -13 -35 -29 -51s-33 -26 -51 -30c-18 -3.33301 -32.333 0.333984 -43 11.001l-60 59c-10.667 10.667 -14 25 -10 43c3.33301 15.333 10.666 29.666 21.999 42.999l-210 211l128 128l211 -210c13.333 12 27.666 19.333 42.999 22
c18 4 32.333 0.666992 43 -10l59 -60c10.667 -10.667 14.334 -25 11.001 -43c-4 -18 -14 -35 -30 -51zM548.002 86l-210.001 -211c12 -13.333 19.333 -27.666 22 -42.999c4 -18 0.666992 -32.333 -10 -43l-60 -59c-10 -10.667 -24.333 -14.334 -43 -11.001
c-18 4 -35 14 -51 30s-25.667 33 -29 51c-4 18 -0.666992 32.333 10 43c-10.667 -10.667 -25 -14 -43 -10c-18 3.33301 -35 13 -51 29s-25.667 33 -29 51c-4 18 -0.666992 32.333 10 43l59 60c10.667 10.667 25.334 14 44.001 10c14.667 -2.66699 29 -10 43 -22l210 210z
M1604 1398l209.997 211c-11.333 13.333 -18.666 27.666 -21.999 42.999c-4 18 -0.666992 32.333 10 43l60 59c10.667 10.667 25 14.334 43 11.001c18 -4 35 -14 51 -30s25.667 -33 29 -51c4 -18 0.666992 -32.333 -10 -43c10.667 10.667 25 14 43 10
c18.667 -3.33301 35.667 -13 51.001 -29c16 -16 26 -33 30 -51c3.33301 -18 -0.333984 -32.333 -11 -43l-59 -60c-10.667 -10.667 -25 -14 -43 -10c-15.333 2.66699 -29.666 10 -42.999 22l-211 -210zM1473 739c0 -28 -14.333 -51.667 -43 -71
c-28.667 -18.667 -64 -28 -106 -28c-41.333 0 -76.333 9.33301 -105 28c-28.667 19.333 -43 43 -43 71v156c0 27.333 14.333 50.666 43 69.999c28.667 18.667 63.667 28 105 28c42 0 77.333 -9.33301 106 -28c28.667 -19.333 43 -42.666 43 -69.999v-156zM1434 209
c0 -13.333 -16.333 -25.333 -49 -36v178c32.667 -10 49 -21.667 49 -35v-107zM1342 163c-9.33301 -2 -13.333 -3 -12 -3c-18 -3.33301 -38 -6.33301 -60 -9v223c22 -2.66699 42 -6 60 -10l12 -2v-199zM1227 147c-23.333 -2 -47.333 -3.66699 -72 -5v241
c24.667 -1.33301 48.667 -3 72 -5v-231zM1076 462c-22.667 0 -41.667 5 -57 15s-23 22.667 -23 38v84c0 14.667 7.66699 27.334 23 38.001c15.333 10 34.333 15 57 15s41.667 -5 57 -15c15.333 -10.667 23 -23.334 23 -38.001v-84c0 -15.333 -7.66699 -28 -23 -38
s-34.333 -15 -57 -15zM1112 141h-35h-37v243h37h35v-243zM996.998 142c-24.667 1.33301 -48.667 3 -72 5v231c23.333 2 47.333 3.66699 72 5v-241zM881.998 151c-21.333 2.66699 -41.333 5.66699 -60 9c0.666992 0 -3 1 -11 3v199c8 1.33301 11.667 2 11 2
c18.667 4 38.667 7.33301 60 10v-223zM767.998 173c-32.667 10.667 -49 22.667 -49 36v107c0 13.333 16.333 25 49 35v-178zM679.998 895c0 27.333 14.333 50.666 43 69.999c28.667 18.667 63.667 28 105 28c42 0 77.333 -9.33301 106 -28
c28.667 -19.333 43 -42.666 43 -69.999v-156c0 -28 -14.333 -51.667 -43 -71c-28.667 -18.667 -64 -28 -106 -28c-41.333 0 -76.333 9.33301 -105 28c-28.667 19.333 -43 43 -43 71v156zM1639 1204c0 104.667 -54.333 192.667 -163 264
c-108.667 72.667 -241.667 109 -399 109c-158.667 0 -292 -36.333 -400 -109c-108.667 -71.333 -163 -159.333 -163 -264v-592c0 -80.667 32 -151.667 96 -213v-183c0 -86.667 45 -160 135 -220c90 -59.333 200.667 -89 332 -89c130 0 240 29.667 330 89
c90 60 135 133.333 135 220v183c64.667 61.333 97 132.333 97 213v592z" />
    <glyph glyph-name="daggerdbl" unicode="&#x2021;" horiz-adv-x="1014" 
 />
    <glyph glyph-name="bullet" unicode="&#x2022;" horiz-adv-x="219" 
d="M68 751c10.667 10.667 23 16 37 16c14.667 0 27 -5.33301 37 -16c10.667 -10 16 -22.333 16 -37c0 -14 -5.33301 -26.333 -16 -37c-10 -10 -22.333 -15 -37 -15c-14 0 -26.333 5 -37 15c-10 10.667 -15 23 -15 37c0 14.667 5 27 15 37z" />
    <glyph glyph-name="ellipsis" unicode="&#x2026;" horiz-adv-x="672" 
d="M68 89c10.667 10.667 23 16 37 16c14.667 0 27 -5.33301 37 -16c10.667 -10 16 -22.333 16 -37c0 -14 -5.33301 -26.333 -16 -37c-10 -10 -22.333 -15 -37 -15c-14 0 -26.333 5 -37 15c-10 10.667 -15 23 -15 37c0 14.667 5 27 15 37zM298 89c10.667 10.667 23 16 37 16
c14.667 0 27 -5.33301 37 -16c10.667 -10 16 -22.333 16 -37c0 -14 -5.33301 -26.333 -16 -37c-10 -10 -22.333 -15 -37 -15c-14 0 -26.333 5 -37 15c-10 10.667 -15 23 -15 37c0 14.667 5 27 15 37zM528 89c10.667 10.667 23 16 37 16c14.667 0 27 -5.33301 37 -16
c10.667 -10 16 -22.333 16 -37c0 -14 -5.33301 -26.333 -16 -37c-10 -10 -22.333 -15 -37 -15c-14 0 -26.333 5 -37 15c-10 10.667 -15 23 -15 37c0 14.667 5 27 15 37z" />
    <glyph glyph-name="guilsinglleft" unicode="&#x2039;" horiz-adv-x="573" 
d="M525 995v-51l-329 -226l329 -227v-51l-475 278z" />
    <glyph glyph-name="guilsinglright" unicode="&#x203a;" horiz-adv-x="566" 
d="M525 718l-475 -278v51l329 227l-329 226v51z" />
    <glyph glyph-name="fraction" unicode="&#x2044;" horiz-adv-x="644" 
d="M69 -76h-112l612 1509h112z" />
    <glyph glyph-name="fraction" unicode="&#x2215;" horiz-adv-x="644" 
d="M69 -76h-112l612 1509h112z" />
    <glyph glyph-name="franc" unicode="&#x20a3;" horiz-adv-x="1131" 
d="M1080 1434v-106h-798v-558h413v-106h-413v-252h223v-107h-223v-305h-107v305h-124v107h124v1022h905z" />
    <glyph glyph-name="lira" unicode="&#x20a4;" horiz-adv-x="1153" 
d="M316 289h-81c-22.667 0 -42 -9 -58 -27s-24 -39.333 -24 -64c0 -25.333 8 -47 24 -65s35.333 -27 58 -27s41.667 9 57 27c16 18 24 39.667 24 65v91zM997 1120v52.999c0 38.667 -26.667 73.667 -80 105c-56.667 33.333 -125.667 50 -207 50
c-80.667 0 -149.667 -16.667 -207 -50c-53.333 -31.333 -80 -66.333 -80 -105v-316h308v-106h-308v-68h308v-106h-308v-316c0 -38.667 26.667 -73.667 80 -105c57.333 -33.333 126.333 -50 207 -50c81.333 0 150.333 16.667 207 50c53.333 31.333 80 66.333 80 105v53h107
v-53c0 -73.333 -38 -135 -114 -185c-76 -50.667 -169.333 -76 -280 -76c-130 0 -234 33.333 -312 100c-36 -66.667 -90.333 -100 -163 -100c-52 0 -96.333 19.333 -133 58s-55 85.334 -55 140.001c0 54 18.333 100.333 55 139s81 58 133 58h81v182h-167v106h167v68h-167v106
h167v316c0 73.333 38 135.333 114 186c76.667 50 170 75 280 75c110.667 0 204 -25 280 -75c76 -50.667 114 -112.667 114 -186v-53h-107z" />
    <glyph glyph-name="peseta" unicode="&#x20a7;" horiz-adv-x="2086" 
d="M1081 830v-569c0 -38.667 26.667 -73.667 80 -105c57.333 -33.333 126.333 -50 207 -50h54v-106h-54c-110 -0 -203 25.333 -279 76c-76 50 -114 111.667 -114 185v1173h106v-498h341v-106h-341zM1508 57c-75.333 46 -113.001 103.333 -113.001 172h107
c0 -30 22.333 -58 67 -84c45.333 -26 94.666 -39 147.999 -39c52 0 100.333 12 145 36c46.667 24.667 70 53.667 70 87v63c0 19.333 -34.333 45.333 -103 78c-40.667 18.667 -82.667 34.334 -126 47.001c-47.333 12.667 -95 30 -143 52
c-110 51.333 -165 109.666 -165 174.999v63c0 64.667 34.667 119.667 104 165c64.667 42.667 137.334 64 218.001 64s153.334 -21.333 218.001 -64c69.333 -45.333 104 -100.333 104 -165h-107c0 30 -22.667 58 -68 84c-46 26 -95 39 -147 39
c-52.667 0 -101.667 -13 -147 -39s-68 -54 -68 -84v-63c0 -20 34 -46 102 -78c42.667 -20 85 -35.667 127 -47c48 -13.333 95.667 -31 143 -53c110 -51.333 165 -109.333 165 -174v-63c0 -67.333 -34.333 -123 -103 -167c-63.333 -41.333 -136.333 -62 -219 -62
c-76 0 -145.667 19 -209 57zM158.999 770v558.002h414c76.667 0 142.334 -27.333 197.001 -82c54 -54.667 81 -120.334 81 -197.001s-27 -142.334 -81 -197.001c-54.667 -54.667 -120.334 -82 -197.001 -82h-414zM52.999 1434v-1434h106v664h414
c106 0 196.667 37.667 272 113s113 166 113 272s-37.667 196.667 -113 272s-166 113 -272 113h-520z" />
    <glyph glyph-name="Euro" unicode="&#x20ac;" horiz-adv-x="928" 
d="M827 1329c-144 0 -272 -45 -384 -135c-110 -89.333 -181 -202.333 -213 -339h431v-105h-446v-33v-33h396v-105h-381c32 -136.667 103 -249.667 213 -339c112 -90 240 -135 384 -135h52v-105h-52c-172.667 -0 -325.334 55.333 -458.001 166
c-131.333 109.333 -213.333 247 -246 413h-75v105h63c-0.666992 11.333 -1 22.333 -1 33s0.333008 21.667 1 33h-63v105h75c32.667 166 114.667 303.667 246 413c132.667 110.667 285.334 166 458.001 166h52v-105h-52z" />
    <glyph glyph-name="afii61352" unicode="&#x2116;" horiz-adv-x="1899" 
d="M1229 1278c-53.333 -31.333 -80 -66.333 -80 -105v-414c0 -38.667 26.667 -73.667 80 -105c56.667 -33.333 125.667 -50 207 -50c80.667 0 149.667 16.667 207 50c53.333 31.333 80 66.333 80 105v414c0 38.667 -26.667 73.667 -80 105
c-57.333 33.333 -126.333 50 -207 50c-81.333 0 -150.333 -16.667 -207 -50zM1156 574c-76 50 -114 111.667 -114 185v414c0 73.333 38 135.333 114 186c76 50 169.333 75 280 75s204 -25 280 -75c76 -50.667 114 -112.667 114 -186v-414c0 -73.333 -38 -135 -114 -185
c-76 -50.667 -169.333 -76 -280 -76s-204 25.333 -280 76zM992 1434v-1434h-107l-692 1217v-1217h-106v1434h106l692 -1218v1218h107zM1830 448h-788v-107h788v107z" />
    <glyph glyph-name="trademark" unicode="&#x2122;" horiz-adv-x="990" 
d="M948 1496v-562h-104v272l-140 -278l-141 278v-272h-104v562h92l153 -305l152 305h92zM429 1496v-104h-137v-458h-104v458h-138v104h379z" />
    <glyph glyph-name="partialdiff" unicode="&#x2202;" horiz-adv-x="1014" 
 />
    <glyph glyph-name="Delta" unicode="&#x2206;" horiz-adv-x="1081" 
 />
    <glyph glyph-name="product" unicode="&#x220f;" horiz-adv-x="1515" 
 />
    <glyph glyph-name="summation" unicode="&#x2211;" horiz-adv-x="1206" 
 />
    <glyph glyph-name="minus" unicode="&#x2212;" horiz-adv-x="552" 
d="M504 770v-106h-454v106h454z" />
    <glyph glyph-name="radical" unicode="&#x221a;" horiz-adv-x="1014" 
 />
    <glyph glyph-name="infinity" unicode="&#x221e;" horiz-adv-x="1078" 
d="M924 683c0 24.667 -17.667 48 -53 70c-34.667 21.333 -72 32 -112 32s-77.333 -10.667 -112 -32c-34.667 -22 -52 -45.333 -52 -70v-56c0 -24.667 17.333 -48 52 -70c34.667 -21.333 72 -32 112 -32s77.333 10.667 112 32c35.333 22 53 45.333 53 70v56zM208 557
c35.333 -21.333 73 -32 113 -32c39.333 0 76.666 10.667 111.999 32c34.667 22 52 45.333 52 70v56c0 24.667 -17.333 48 -52 70c-35.333 21.333 -72.666 32 -111.999 32c-40 0 -77.667 -10.667 -113 -32c-34.667 -22 -52 -45.333 -52 -70v-56c0 -24.667 17.333 -48 52 -70z
M540 808c58 58.667 131 88 219 88c68.667 0 130.667 -20 186 -60c59.333 -42 89 -93 89 -153v-56c0 -60 -29.667 -111 -89 -153c-55.333 -39.333 -117.333 -59 -186 -59c-88 0 -161 29 -219 87c-58 -58 -131 -87 -219 -87c-69.333 0 -131.333 19.667 -186 59
c-59.333 42 -89 93 -89 153v56c0 60 29.667 111 89 153c54.667 40 116.667 60 186 60c88 0 161 -29.333 219 -88z" />
    <glyph glyph-name="integral" unicode="&#x222b;" horiz-adv-x="665" 
 />
    <glyph glyph-name="approxequal" unicode="&#x2248;" horiz-adv-x="1014" 
 />
    <glyph glyph-name="lessequal" unicode="&#x2264;" horiz-adv-x="750" 
d="M686 1086v-123l-420 -246l420 -245v-123l-631 368zM686 289v-106h-631v106h631z" />
    <glyph glyph-name="greaterequal" unicode="&#x2265;" horiz-adv-x="750" 
d="M686 717l-631 -368v123l420 245l-420 246v123zM686 289v-106h-631v106h631z" />
    <glyph glyph-name="uniF001" unicode="&#xf001;" horiz-adv-x="1073" 
 />
    <glyph glyph-name="uniF001" unicode="&#xfb01;" horiz-adv-x="1073" 
 />
    <glyph glyph-name="uniF002" unicode="&#xf002;" horiz-adv-x="1081" 
 />
    <glyph glyph-name="uniF002" unicode="&#xfb02;" horiz-adv-x="1081" 
 />
    <glyph glyph-name="NULL" horiz-adv-x="0" 
 />
    <glyph glyph-name="nonmarkingreturn" horiz-adv-x="508" 
 />
    </font>
</defs>
</svg>
