<svg
   xmlns:dc="http://purl.org/dc/elements/1.1/"
   xmlns:cc="http://creativecommons.org/ns#"
   xmlns:rdf="http://www.w3.org/1999/02/22-rdf-syntax-ns#"
   xmlns:svg="http://www.w3.org/2000/svg"
   xmlns="http://www.w3.org/2000/svg"
   version="1.1"
   width="100%"
   height="100%"
   viewBox="0 0 32 30"
   xml:space="preserve"><metadata id="metadata11"><rdf:RDF><cc:Work rdf:about=""><dc:format>image/svg+xml</dc:format><dc:type rdf:resource="http://purl.org/dc/dcmitype/StillImage" /><dc:title></dc:title></cc:Work></rdf:RDF></metadata><defs /><style
     type="text/css" /><path
     d="m 16.8,25.6 6.8,3.6 c 1.2,0.6 2.6,-0.4 2.4,-1.7 L 24.7,20 c -0.1,-0.5 0.1,-1.1 0.5,-1.4 l 5.5,-5.3 c 1,-0.9 0.4,-2.6 -0.9,-2.8 L 22.2,9.4 C 21.7,9.3 21.2,9 21,8.5 L 17.6,1.6 C 17,0.4 15.3,0.4 14.7,1.6 L 11.3,8.5 C 11.1,9 10.6,9.3 10.1,9.4 l -7.6,1.1 c -1.3,0.2 -1.9,1.8 -0.9,2.8 l 5.5,5.3 C 7.5,19 7.7,19.5 7.6,20 l -1.3,7.5 c -0.2,1.3 1.2,2.3 2.4,1.7 l 6.8,-3.6 c 0.2,-0.2 0.8,-0.2 1.3,0 z"
     class="jlc-star-draw"
      /></svg>
