<?xml version="1.0" encoding="UTF-8" standalone="no"?>
<!-- Created with Inkscape (http://www.inkscape.org/) -->

<svg
   xmlns:dc="http://purl.org/dc/elements/1.1/"
   xmlns:cc="http://creativecommons.org/ns#"
   xmlns:rdf="http://www.w3.org/1999/02/22-rdf-syntax-ns#"
   xmlns:svg="http://www.w3.org/2000/svg"
   xmlns="http://www.w3.org/2000/svg"
   xmlns:sodipodi="http://sodipodi.sourceforge.net/DTD/sodipodi-0.dtd"
   xmlns:inkscape="http://www.inkscape.org/namespaces/inkscape"
   version="1.2"
   width="200"
   height="200"
   viewBox="0 0 200 200"
   id="svg2"
   inkscape:version="0.48.4 r9939"
   sodipodi:docname="site_settings.svg">
  <sodipodi:namedview
     pagecolor="#ffffff"
     bordercolor="#666666"
     borderopacity="1"
     objecttolerance="10"
     gridtolerance="10"
     guidetolerance="10"
     inkscape:pageopacity="0"
     inkscape:pageshadow="2"
     inkscape:window-width="1624"
     inkscape:window-height="969"
     id="namedview10"
     showgrid="false"
     inkscape:zoom="4.2148243"
     inkscape:cx="96.186441"
     inkscape:cy="91.101695"
     inkscape:window-x="0"
     inkscape:window-y="0"
     inkscape:window-maximized="0"
     inkscape:current-layer="svg2" />
  <defs
     id="defs4" />
  <metadata
     id="metadata7">
    <rdf:RDF>
      <cc:Work
         rdf:about="">
        <dc:format>image/svg+xml</dc:format>
        <dc:type
           rdf:resource="http://purl.org/dc/dcmitype/StillImage" />
        <dc:title />
      </cc:Work>
    </rdf:RDF>
  </metadata>
  <g
     transform="translate(0,-847.27743)"
     id="layer1"
     style="fill:none;stroke:#000000;stroke-width:6;stroke-linejoin:round;stroke-miterlimit:4;stroke-opacity:1;stroke-dasharray:none">
    <g
       transform="translate(10,844.36218)"
       id="flowRoot2985"
       style="font-size:48px;font-style:normal;font-weight:bold;line-height:125%;letter-spacing:0px;word-spacing:0px;fill:none;stroke:#000000;stroke-width:6;stroke-linejoin:round;stroke-miterlimit:4;stroke-opacity:1;stroke-dasharray:none;font-family:Sans;-inkscape-font-specification:Sans Bold">
      <path
         d="m 4.9551117,86.851772 8.6484373,0 6.046875,18.074698 6,-18.074698 8.695312,0 6,18.074698 6.046875,-18.074698 8.578125,0 -8.25,34.992188 -10.40625,0 -6.351562,-13.78964 -6.28125,13.78964 -10.40625,0 -8.3203123,-34.992188"
         id="path2994"
         style="fill:none;stroke:#000000;stroke-width:6;stroke-linejoin:round;stroke-miterlimit:4;stroke-opacity:1;stroke-dasharray:none"
         inkscape:connector-curvature="0"
         sodipodi:nodetypes="cccccccccccccc" />
      <path
         d="m 66.398437,86.851772 8.648438,0 6.046875,18.074698 6,-18.074698 8.695312,0 5.999998,18.074698 6.04688,-18.074698 8.57812,0 -8.25,34.992188 -10.406248,0 -6.351562,-13.78964 -6.28125,13.78964 -10.40625,0 -8.320313,-34.992188"
         id="path2996"
         style="fill:none;stroke:#000000;stroke-width:6;stroke-linejoin:round;stroke-miterlimit:4;stroke-opacity:1;stroke-dasharray:none"
         inkscape:connector-curvature="0"
         sodipodi:nodetypes="cccccccccccccc" />
      <path
         d="m 129.53668,86.851772 8.64843,0 6.04688,18.074698 6,-18.074698 8.69531,0 6,18.074698 6.04688,-18.074698 8.57812,0 -8.25,34.992188 -10.40625,0 -6.35156,-13.78964 -6.28125,13.78964 -10.40625,0 -8.32031,-34.992188"
         id="path2998"
         style="fill:none;stroke:#000000;stroke-width:6;stroke-linejoin:round;stroke-miterlimit:4;stroke-opacity:1;stroke-dasharray:none"
         inkscape:connector-curvature="0"
         sodipodi:nodetypes="cccccccccccccc" />
    </g>
  </g>
</svg>
